ISO-10303-21;
HEADER;
/* Generated by software containing ST-Developer
 * from STEP Tools, Inc. (www.steptools.com) 
 */
/* OPTION: using custom renumber hook */

FILE_DESCRIPTION(
/* description */ ('STEP AP242 Edition 2',
'CAx-IF Rec.Pracs.---Representation and Presentation of Product Manufa
cturing Information (PMI)---4.0---2014-10-13',
'CAx-IF Rec.Pracs.---3D Tessellated Geometry---0.4---2014-09-14','2;1',
'CAx-IF Rec.Pracs.---User Defined Attributes---1.5---2016-08-15'),
/* implementation_level */ '2;1');

FILE_NAME(
/* name */ 'Part Studio 1 - Bottom',
/* time_stamp */ '2026-07-01T17:44:59Z',
/* author */ (''),
/* organization */ (''),
/* preprocessor_version */ 'ST-DEVELOPER v20',
/* originating_system */ 'ONSHAPE BY PTC INC, 1.217',
/* authorisation */ '  ');

FILE_SCHEMA (('AP242_MANAGED_MODEL_BASED_3D_ENGINEERING_MIM_LF { 1 0 10303 442 3 1 4 }'));
ENDSEC;

DATA;
#10=SHAPE_REPRESENTATION_RELATIONSHIP('','',#625,#11);
#11=ADVANCED_BREP_SHAPE_REPRESENTATION('',(#623),#1071);
#12=VERTEX_LOOP('',#343);
#13=VERTEX_LOOP('',#345);
#14=VERTEX_LOOP('',#347);
#15=VERTEX_LOOP('',#349);
#16=CONICAL_SURFACE('',#664,0.0011,1.02974425867665);
#17=CONICAL_SURFACE('',#667,0.0011,1.02974425867665);
#18=CONICAL_SURFACE('',#670,0.0011,1.02974425867665);
#19=CONICAL_SURFACE('',#673,0.0011,1.02974425867665);
#20=PLANE('',#630);
#21=PLANE('',#634);
#22=PLANE('',#638);
#23=PLANE('',#642);
#24=PLANE('',#652);
#25=PLANE('',#656);
#26=PLANE('',#658);
#27=PLANE('',#660);
#28=PLANE('',#662);
#29=PLANE('',#676);
#30=PLANE('',#685);
#31=PLANE('',#694);
#32=PLANE('',#696);
#33=PLANE('',#698);
#34=PLANE('',#700);
#35=LINE('',#903,#67);
#36=LINE('',#907,#68);
#37=LINE('',#909,#69);
#38=LINE('',#911,#70);
#39=LINE('',#913,#71);
#40=LINE('',#919,#72);
#41=LINE('',#921,#73);
#42=LINE('',#923,#74);
#43=LINE('',#925,#75);
#44=LINE('',#931,#76);
#45=LINE('',#933,#77);
#46=LINE('',#935,#78);
#47=LINE('',#937,#79);
#48=LINE('',#943,#80);
#49=LINE('',#945,#81);
#50=LINE('',#946,#82);
#51=LINE('',#1012,#83);
#52=LINE('',#1016,#84);
#53=LINE('',#1020,#85);
#54=LINE('',#1024,#86);
#55=LINE('',#1034,#87);
#56=LINE('',#1039,#88);
#57=LINE('',#1043,#89);
#58=LINE('',#1047,#90);
#59=LINE('',#1051,#91);
#60=LINE('',#1052,#92);
#61=LINE('',#1054,#93);
#62=LINE('',#1056,#94);
#63=LINE('',#1058,#95);
#64=LINE('',#1060,#96);
#65=LINE('',#1062,#97);
#66=LINE('',#1064,#98);
#67=VECTOR('',#712,1.);
#68=VECTOR('',#715,1.);
#69=VECTOR('',#718,1.);
#70=VECTOR('',#719,1.);
#71=VECTOR('',#720,1.);
#72=VECTOR('',#727,1.);
#73=VECTOR('',#730,1.);
#74=VECTOR('',#731,1.);
#75=VECTOR('',#732,1.);
#76=VECTOR('',#739,1.);
#77=VECTOR('',#742,1.);
#78=VECTOR('',#743,1.);
#79=VECTOR('',#744,1.);
#80=VECTOR('',#751,1.);
#81=VECTOR('',#754,1.);
#82=VECTOR('',#755,1.);
#83=VECTOR('',#834,1.);
#84=VECTOR('',#837,1.);
#85=VECTOR('',#840,1.);
#86=VECTOR('',#843,1.);
#87=VECTOR('',#854,1.);
#88=VECTOR('',#857,1.);
#89=VECTOR('',#860,1.);
#90=VECTOR('',#863,1.);
#91=VECTOR('',#868,1.);
#92=VECTOR('',#869,1.);
#93=VECTOR('',#872,1.);
#94=VECTOR('',#875,1.);
#95=VECTOR('',#878,1.);
#96=VECTOR('',#881,1.);
#97=VECTOR('',#884,1.);
#98=VECTOR('',#887,1.);
#99=ORIENTED_EDGE('',*,*,#243,.F.);
#100=ORIENTED_EDGE('',*,*,#244,.F.);
#101=ORIENTED_EDGE('',*,*,#245,.F.);
#102=ORIENTED_EDGE('',*,*,#246,.F.);
#103=ORIENTED_EDGE('',*,*,#246,.T.);
#104=ORIENTED_EDGE('',*,*,#247,.T.);
#105=ORIENTED_EDGE('',*,*,#248,.T.);
#106=ORIENTED_EDGE('',*,*,#249,.F.);
#107=ORIENTED_EDGE('',*,*,#250,.F.);
#108=ORIENTED_EDGE('',*,*,#248,.F.);
#109=ORIENTED_EDGE('',*,*,#251,.F.);
#110=ORIENTED_EDGE('',*,*,#252,.F.);
#111=ORIENTED_EDGE('',*,*,#252,.T.);
#112=ORIENTED_EDGE('',*,*,#253,.F.);
#113=ORIENTED_EDGE('',*,*,#254,.T.);
#114=ORIENTED_EDGE('',*,*,#255,.T.);
#115=ORIENTED_EDGE('',*,*,#256,.F.);
#116=ORIENTED_EDGE('',*,*,#254,.F.);
#117=ORIENTED_EDGE('',*,*,#257,.F.);
#118=ORIENTED_EDGE('',*,*,#258,.F.);
#119=ORIENTED_EDGE('',*,*,#258,.T.);
#120=ORIENTED_EDGE('',*,*,#259,.F.);
#121=ORIENTED_EDGE('',*,*,#260,.T.);
#122=ORIENTED_EDGE('',*,*,#261,.T.);
#123=ORIENTED_EDGE('',*,*,#262,.F.);
#124=ORIENTED_EDGE('',*,*,#260,.F.);
#125=ORIENTED_EDGE('',*,*,#263,.F.);
#126=ORIENTED_EDGE('',*,*,#264,.F.);
#127=ORIENTED_EDGE('',*,*,#265,.F.);
#128=ORIENTED_EDGE('',*,*,#264,.T.);
#129=ORIENTED_EDGE('',*,*,#266,.T.);
#130=ORIENTED_EDGE('',*,*,#244,.T.);
#131=ORIENTED_EDGE('',*,*,#267,.F.);
#132=ORIENTED_EDGE('',*,*,#268,.T.);
#133=ORIENTED_EDGE('',*,*,#269,.F.);
#134=ORIENTED_EDGE('',*,*,#270,.T.);
#135=ORIENTED_EDGE('',*,*,#271,.F.);
#136=ORIENTED_EDGE('',*,*,#272,.T.);
#137=ORIENTED_EDGE('',*,*,#273,.F.);
#138=ORIENTED_EDGE('',*,*,#272,.F.);
#139=ORIENTED_EDGE('',*,*,#270,.F.);
#140=ORIENTED_EDGE('',*,*,#268,.F.);
#141=ORIENTED_EDGE('',*,*,#261,.F.);
#142=ORIENTED_EDGE('',*,*,#262,.T.);
#143=ORIENTED_EDGE('',*,*,#265,.T.);
#144=ORIENTED_EDGE('',*,*,#243,.T.);
#145=ORIENTED_EDGE('',*,*,#249,.T.);
#146=ORIENTED_EDGE('',*,*,#250,.T.);
#147=ORIENTED_EDGE('',*,*,#255,.F.);
#148=ORIENTED_EDGE('',*,*,#256,.T.);
#149=ORIENTED_EDGE('',*,*,#274,.F.);
#150=ORIENTED_EDGE('',*,*,#273,.T.);
#151=ORIENTED_EDGE('',*,*,#275,.T.);
#152=ORIENTED_EDGE('',*,*,#267,.T.);
#153=ORIENTED_EDGE('',*,*,#276,.T.);
#154=ORIENTED_EDGE('',*,*,#269,.T.);
#155=ORIENTED_EDGE('',*,*,#277,.T.);
#156=ORIENTED_EDGE('',*,*,#271,.T.);
#157=ORIENTED_EDGE('',*,*,#278,.T.);
#158=ORIENTED_EDGE('',*,*,#274,.T.);
#159=ORIENTED_EDGE('',*,*,#279,.F.);
#160=ORIENTED_EDGE('',*,*,#279,.T.);
#161=ORIENTED_EDGE('',*,*,#278,.F.);
#162=ORIENTED_EDGE('',*,*,#280,.F.);
#163=ORIENTED_EDGE('',*,*,#280,.T.);
#164=ORIENTED_EDGE('',*,*,#277,.F.);
#165=ORIENTED_EDGE('',*,*,#281,.F.);
#166=ORIENTED_EDGE('',*,*,#281,.T.);
#167=ORIENTED_EDGE('',*,*,#276,.F.);
#168=ORIENTED_EDGE('',*,*,#282,.F.);
#169=ORIENTED_EDGE('',*,*,#282,.T.);
#170=ORIENTED_EDGE('',*,*,#275,.F.);
#171=ORIENTED_EDGE('',*,*,#283,.F.);
#172=ORIENTED_EDGE('',*,*,#284,.F.);
#173=ORIENTED_EDGE('',*,*,#285,.F.);
#174=ORIENTED_EDGE('',*,*,#286,.F.);
#175=ORIENTED_EDGE('',*,*,#263,.T.);
#176=ORIENTED_EDGE('',*,*,#259,.T.);
#177=ORIENTED_EDGE('',*,*,#257,.T.);
#178=ORIENTED_EDGE('',*,*,#253,.T.);
#179=ORIENTED_EDGE('',*,*,#251,.T.);
#180=ORIENTED_EDGE('',*,*,#247,.F.);
#181=ORIENTED_EDGE('',*,*,#245,.T.);
#182=ORIENTED_EDGE('',*,*,#266,.F.);
#183=ORIENTED_EDGE('',*,*,#287,.T.);
#184=ORIENTED_EDGE('',*,*,#288,.F.);
#185=ORIENTED_EDGE('',*,*,#289,.T.);
#186=ORIENTED_EDGE('',*,*,#290,.T.);
#187=ORIENTED_EDGE('',*,*,#291,.T.);
#188=ORIENTED_EDGE('',*,*,#292,.T.);
#189=ORIENTED_EDGE('',*,*,#293,.T.);
#190=ORIENTED_EDGE('',*,*,#294,.F.);
#191=ORIENTED_EDGE('',*,*,#295,.T.);
#192=ORIENTED_EDGE('',*,*,#296,.T.);
#193=ORIENTED_EDGE('',*,*,#297,.T.);
#194=ORIENTED_EDGE('',*,*,#298,.T.);
#195=ORIENTED_EDGE('',*,*,#299,.T.);
#196=ORIENTED_EDGE('',*,*,#300,.T.);
#197=ORIENTED_EDGE('',*,*,#301,.T.);
#198=ORIENTED_EDGE('',*,*,#302,.T.);
#199=ORIENTED_EDGE('',*,*,#303,.F.);
#200=ORIENTED_EDGE('',*,*,#304,.T.);
#201=ORIENTED_EDGE('',*,*,#305,.F.);
#202=ORIENTED_EDGE('',*,*,#306,.T.);
#203=ORIENTED_EDGE('',*,*,#307,.T.);
#204=ORIENTED_EDGE('',*,*,#294,.T.);
#205=ORIENTED_EDGE('',*,*,#308,.T.);
#206=ORIENTED_EDGE('',*,*,#301,.F.);
#207=ORIENTED_EDGE('',*,*,#302,.F.);
#208=ORIENTED_EDGE('',*,*,#308,.F.);
#209=ORIENTED_EDGE('',*,*,#293,.F.);
#210=ORIENTED_EDGE('',*,*,#309,.F.);
#211=ORIENTED_EDGE('',*,*,#309,.T.);
#212=ORIENTED_EDGE('',*,*,#292,.F.);
#213=ORIENTED_EDGE('',*,*,#310,.T.);
#214=ORIENTED_EDGE('',*,*,#303,.T.);
#215=ORIENTED_EDGE('',*,*,#304,.F.);
#216=ORIENTED_EDGE('',*,*,#310,.F.);
#217=ORIENTED_EDGE('',*,*,#291,.F.);
#218=ORIENTED_EDGE('',*,*,#311,.F.);
#219=ORIENTED_EDGE('',*,*,#311,.T.);
#220=ORIENTED_EDGE('',*,*,#290,.F.);
#221=ORIENTED_EDGE('',*,*,#312,.T.);
#222=ORIENTED_EDGE('',*,*,#305,.T.);
#223=ORIENTED_EDGE('',*,*,#306,.F.);
#224=ORIENTED_EDGE('',*,*,#312,.F.);
#225=ORIENTED_EDGE('',*,*,#289,.F.);
#226=ORIENTED_EDGE('',*,*,#313,.F.);
#227=ORIENTED_EDGE('',*,*,#313,.T.);
#228=ORIENTED_EDGE('',*,*,#288,.T.);
#229=ORIENTED_EDGE('',*,*,#314,.T.);
#230=ORIENTED_EDGE('',*,*,#299,.F.);
#231=ORIENTED_EDGE('',*,*,#300,.F.);
#232=ORIENTED_EDGE('',*,*,#314,.F.);
#233=ORIENTED_EDGE('',*,*,#287,.F.);
#234=ORIENTED_EDGE('',*,*,#307,.F.);
#235=ORIENTED_EDGE('',*,*,#286,.T.);
#236=ORIENTED_EDGE('',*,*,#298,.F.);
#237=ORIENTED_EDGE('',*,*,#285,.T.);
#238=ORIENTED_EDGE('',*,*,#297,.F.);
#239=ORIENTED_EDGE('',*,*,#284,.T.);
#240=ORIENTED_EDGE('',*,*,#296,.F.);
#241=ORIENTED_EDGE('',*,*,#283,.T.);
#242=ORIENTED_EDGE('',*,*,#295,.F.);
#243=EDGE_CURVE('',#315,#316,#375,.T.);
#244=EDGE_CURVE('',#317,#315,#35,.F.);
#245=EDGE_CURVE('',#318,#317,#376,.F.);
#246=EDGE_CURVE('',#316,#318,#36,.T.);
#247=EDGE_CURVE('',#318,#319,#37,.T.);
#248=EDGE_CURVE('',#319,#320,#38,.F.);
#249=EDGE_CURVE('',#316,#320,#39,.T.);
#250=EDGE_CURVE('',#320,#321,#377,.T.);
#251=EDGE_CURVE('',#322,#319,#378,.F.);
#252=EDGE_CURVE('',#321,#322,#40,.T.);
#253=EDGE_CURVE('',#323,#322,#41,.T.);
#254=EDGE_CURVE('',#323,#324,#42,.F.);
#255=EDGE_CURVE('',#324,#321,#43,.T.);
#256=EDGE_CURVE('',#324,#325,#379,.T.);
#257=EDGE_CURVE('',#326,#323,#380,.F.);
#258=EDGE_CURVE('',#325,#326,#44,.T.);
#259=EDGE_CURVE('',#327,#326,#45,.T.);
#260=EDGE_CURVE('',#327,#328,#46,.F.);
#261=EDGE_CURVE('',#328,#325,#47,.T.);
#262=EDGE_CURVE('',#328,#329,#381,.T.);
#263=EDGE_CURVE('',#330,#327,#382,.F.);
#264=EDGE_CURVE('',#329,#330,#48,.T.);
#265=EDGE_CURVE('',#329,#315,#49,.T.);
#266=EDGE_CURVE('',#330,#317,#50,.T.);
#267=EDGE_CURVE('',#331,#331,#383,.T.);
#268=EDGE_CURVE('',#332,#332,#384,.T.);
#269=EDGE_CURVE('',#333,#333,#385,.T.);
#270=EDGE_CURVE('',#334,#334,#386,.T.);
#271=EDGE_CURVE('',#335,#335,#387,.T.);
#272=EDGE_CURVE('',#336,#336,#388,.T.);
#273=EDGE_CURVE('',#337,#337,#389,.T.);
#274=EDGE_CURVE('',#338,#338,#390,.T.);
#275=EDGE_CURVE('',#339,#339,#391,.T.);
#276=EDGE_CURVE('',#340,#340,#392,.T.);
#277=EDGE_CURVE('',#341,#341,#393,.T.);
#278=EDGE_CURVE('',#342,#342,#394,.T.);
#279=EDGE_CURVE('',#344,#344,#395,.T.);
#280=EDGE_CURVE('',#346,#346,#396,.T.);
#281=EDGE_CURVE('',#348,#348,#397,.T.);
#282=EDGE_CURVE('',#350,#350,#398,.T.);
#283=EDGE_CURVE('',#351,#351,#399,.T.);
#284=EDGE_CURVE('',#352,#352,#400,.T.);
#285=EDGE_CURVE('',#353,#353,#401,.T.);
#286=EDGE_CURVE('',#354,#354,#402,.T.);
#287=EDGE_CURVE('',#355,#356,#403,.T.);
#288=EDGE_CURVE('',#357,#356,#51,.T.);
#289=EDGE_CURVE('',#357,#358,#404,.T.);
#290=EDGE_CURVE('',#358,#359,#52,.T.);
#291=EDGE_CURVE('',#359,#360,#405,.T.);
#292=EDGE_CURVE('',#360,#361,#53,.T.);
#293=EDGE_CURVE('',#361,#362,#406,.T.);
#294=EDGE_CURVE('',#355,#362,#54,.T.);
#295=EDGE_CURVE('',#363,#363,#407,.T.);
#296=EDGE_CURVE('',#364,#364,#408,.T.);
#297=EDGE_CURVE('',#365,#365,#409,.T.);
#298=EDGE_CURVE('',#366,#366,#410,.T.);
#299=EDGE_CURVE('',#367,#368,#55,.T.);
#300=EDGE_CURVE('',#368,#369,#411,.F.);
#301=EDGE_CURVE('',#369,#370,#56,.T.);
#302=EDGE_CURVE('',#370,#371,#412,.F.);
#303=EDGE_CURVE('',#372,#371,#57,.T.);
#304=EDGE_CURVE('',#372,#373,#413,.F.);
#305=EDGE_CURVE('',#374,#373,#58,.T.);
#306=EDGE_CURVE('',#374,#367,#414,.F.);
#307=EDGE_CURVE('',#369,#355,#59,.T.);
#308=EDGE_CURVE('',#362,#370,#60,.F.);
#309=EDGE_CURVE('',#371,#361,#61,.T.);
#310=EDGE_CURVE('',#360,#372,#62,.F.);
#311=EDGE_CURVE('',#373,#359,#63,.T.);
#312=EDGE_CURVE('',#358,#374,#64,.F.);
#313=EDGE_CURVE('',#367,#357,#65,.T.);
#314=EDGE_CURVE('',#356,#368,#66,.F.);
#315=VERTEX_POINT('',#901);
#316=VERTEX_POINT('',#902);
#317=VERTEX_POINT('',#904);
#318=VERTEX_POINT('',#906);
#319=VERTEX_POINT('',#910);
#320=VERTEX_POINT('',#912);
#321=VERTEX_POINT('',#916);
#322=VERTEX_POINT('',#918);
#323=VERTEX_POINT('',#922);
#324=VERTEX_POINT('',#924);
#325=VERTEX_POINT('',#928);
#326=VERTEX_POINT('',#930);
#327=VERTEX_POINT('',#934);
#328=VERTEX_POINT('',#936);
#329=VERTEX_POINT('',#940);
#330=VERTEX_POINT('',#942);
#331=VERTEX_POINT('',#949);
#332=VERTEX_POINT('',#951);
#333=VERTEX_POINT('',#954);
#334=VERTEX_POINT('',#956);
#335=VERTEX_POINT('',#959);
#336=VERTEX_POINT('',#961);
#337=VERTEX_POINT('',#964);
#338=VERTEX_POINT('',#967);
#339=VERTEX_POINT('',#970);
#340=VERTEX_POINT('',#973);
#341=VERTEX_POINT('',#976);
#342=VERTEX_POINT('',#979);
#343=VERTEX_POINT('',#981);
#344=VERTEX_POINT('',#983);
#345=VERTEX_POINT('',#986);
#346=VERTEX_POINT('',#988);
#347=VERTEX_POINT('',#991);
#348=VERTEX_POINT('',#993);
#349=VERTEX_POINT('',#996);
#350=VERTEX_POINT('',#998);
#351=VERTEX_POINT('',#1002);
#352=VERTEX_POINT('',#1004);
#353=VERTEX_POINT('',#1006);
#354=VERTEX_POINT('',#1008);
#355=VERTEX_POINT('',#1010);
#356=VERTEX_POINT('',#1011);
#357=VERTEX_POINT('',#1013);
#358=VERTEX_POINT('',#1015);
#359=VERTEX_POINT('',#1017);
#360=VERTEX_POINT('',#1019);
#361=VERTEX_POINT('',#1021);
#362=VERTEX_POINT('',#1023);
#363=VERTEX_POINT('',#1027);
#364=VERTEX_POINT('',#1029);
#365=VERTEX_POINT('',#1031);
#366=VERTEX_POINT('',#1033);
#367=VERTEX_POINT('',#1035);
#368=VERTEX_POINT('',#1036);
#369=VERTEX_POINT('',#1038);
#370=VERTEX_POINT('',#1040);
#371=VERTEX_POINT('',#1042);
#372=VERTEX_POINT('',#1044);
#373=VERTEX_POINT('',#1046);
#374=VERTEX_POINT('',#1048);
#375=CIRCLE('',#628,0.002);
#376=CIRCLE('',#629,0.002);
#377=CIRCLE('',#632,0.002);
#378=CIRCLE('',#633,0.002);
#379=CIRCLE('',#636,0.002);
#380=CIRCLE('',#637,0.002);
#381=CIRCLE('',#640,0.002);
#382=CIRCLE('',#641,0.002);
#383=CIRCLE('',#644,0.0029);
#384=CIRCLE('',#645,0.0029);
#385=CIRCLE('',#647,0.0029);
#386=CIRCLE('',#648,0.0029);
#387=CIRCLE('',#650,0.0029);
#388=CIRCLE('',#651,0.0029);
#389=CIRCLE('',#653,0.0029);
#390=CIRCLE('',#655,0.0029);
#391=CIRCLE('',#657,0.0011);
#392=CIRCLE('',#659,0.0011);
#393=CIRCLE('',#661,0.0011);
#394=CIRCLE('',#663,0.0011);
#395=CIRCLE('',#665,0.0011);
#396=CIRCLE('',#668,0.0011);
#397=CIRCLE('',#671,0.0011);
#398=CIRCLE('',#674,0.0011);
#399=CIRCLE('',#677,0.00125);
#400=CIRCLE('',#678,0.00125);
#401=CIRCLE('',#679,0.00125);
#402=CIRCLE('',#680,0.00125);
#403=CIRCLE('',#681,0.002);
#404=CIRCLE('',#682,0.002);
#405=CIRCLE('',#683,0.002);
#406=CIRCLE('',#684,0.002);
#407=CIRCLE('',#686,0.00125);
#408=CIRCLE('',#687,0.00125);
#409=CIRCLE('',#688,0.00125);
#410=CIRCLE('',#689,0.00125);
#411=CIRCLE('',#690,0.002);
#412=CIRCLE('',#691,0.002);
#413=CIRCLE('',#692,0.002);
#414=CIRCLE('',#693,0.002);
#415=EDGE_LOOP('',(#99,#100,#101,#102));
#416=EDGE_LOOP('',(#103,#104,#105,#106));
#417=EDGE_LOOP('',(#107,#108,#109,#110));
#418=EDGE_LOOP('',(#111,#112,#113,#114));
#419=EDGE_LOOP('',(#115,#116,#117,#118));
#420=EDGE_LOOP('',(#119,#120,#121,#122));
#421=EDGE_LOOP('',(#123,#124,#125,#126));
#422=EDGE_LOOP('',(#127,#128,#129,#130));
#423=EDGE_LOOP('',(#131));
#424=EDGE_LOOP('',(#132));
#425=EDGE_LOOP('',(#133));
#426=EDGE_LOOP('',(#134));
#427=EDGE_LOOP('',(#135));
#428=EDGE_LOOP('',(#136));
#429=EDGE_LOOP('',(#137));
#430=EDGE_LOOP('',(#138));
#431=EDGE_LOOP('',(#139));
#432=EDGE_LOOP('',(#140));
#433=EDGE_LOOP('',(#141,#142,#143,#144,#145,#146,#147,#148));
#434=EDGE_LOOP('',(#149));
#435=EDGE_LOOP('',(#150));
#436=EDGE_LOOP('',(#151));
#437=EDGE_LOOP('',(#152));
#438=EDGE_LOOP('',(#153));
#439=EDGE_LOOP('',(#154));
#440=EDGE_LOOP('',(#155));
#441=EDGE_LOOP('',(#156));
#442=EDGE_LOOP('',(#157));
#443=EDGE_LOOP('',(#158));
#444=EDGE_LOOP('',(#159));
#445=EDGE_LOOP('',(#160));
#446=EDGE_LOOP('',(#161));
#447=EDGE_LOOP('',(#162));
#448=EDGE_LOOP('',(#163));
#449=EDGE_LOOP('',(#164));
#450=EDGE_LOOP('',(#165));
#451=EDGE_LOOP('',(#166));
#452=EDGE_LOOP('',(#167));
#453=EDGE_LOOP('',(#168));
#454=EDGE_LOOP('',(#169));
#455=EDGE_LOOP('',(#170));
#456=EDGE_LOOP('',(#171));
#457=EDGE_LOOP('',(#172));
#458=EDGE_LOOP('',(#173));
#459=EDGE_LOOP('',(#174));
#460=EDGE_LOOP('',(#175,#176,#177,#178,#179,#180,#181,#182));
#461=EDGE_LOOP('',(#183,#184,#185,#186,#187,#188,#189,#190));
#462=EDGE_LOOP('',(#191));
#463=EDGE_LOOP('',(#192));
#464=EDGE_LOOP('',(#193));
#465=EDGE_LOOP('',(#194));
#466=EDGE_LOOP('',(#195,#196,#197,#198,#199,#200,#201,#202));
#467=EDGE_LOOP('',(#203,#204,#205,#206));
#468=EDGE_LOOP('',(#207,#208,#209,#210));
#469=EDGE_LOOP('',(#211,#212,#213,#214));
#470=EDGE_LOOP('',(#215,#216,#217,#218));
#471=EDGE_LOOP('',(#219,#220,#221,#222));
#472=EDGE_LOOP('',(#223,#224,#225,#226));
#473=EDGE_LOOP('',(#227,#228,#229,#230));
#474=EDGE_LOOP('',(#231,#232,#233,#234));
#475=EDGE_LOOP('',(#235));
#476=EDGE_LOOP('',(#236));
#477=EDGE_LOOP('',(#237));
#478=EDGE_LOOP('',(#238));
#479=EDGE_LOOP('',(#239));
#480=EDGE_LOOP('',(#240));
#481=EDGE_LOOP('',(#241));
#482=EDGE_LOOP('',(#242));
#483=FACE_BOUND('',#415,.T.);
#484=FACE_BOUND('',#416,.T.);
#485=FACE_BOUND('',#417,.T.);
#486=FACE_BOUND('',#418,.T.);
#487=FACE_BOUND('',#419,.T.);
#488=FACE_BOUND('',#420,.T.);
#489=FACE_BOUND('',#421,.T.);
#490=FACE_BOUND('',#422,.T.);
#491=FACE_BOUND('',#423,.T.);
#492=FACE_BOUND('',#424,.T.);
#493=FACE_BOUND('',#425,.T.);
#494=FACE_BOUND('',#426,.T.);
#495=FACE_BOUND('',#427,.T.);
#496=FACE_BOUND('',#428,.T.);
#497=FACE_BOUND('',#429,.T.);
#498=FACE_BOUND('',#430,.T.);
#499=FACE_BOUND('',#431,.T.);
#500=FACE_BOUND('',#432,.T.);
#501=FACE_BOUND('',#433,.T.);
#502=FACE_BOUND('',#434,.T.);
#503=FACE_BOUND('',#435,.T.);
#504=FACE_BOUND('',#436,.T.);
#505=FACE_BOUND('',#437,.T.);
#506=FACE_BOUND('',#438,.T.);
#507=FACE_BOUND('',#439,.T.);
#508=FACE_BOUND('',#440,.T.);
#509=FACE_BOUND('',#441,.T.);
#510=FACE_BOUND('',#442,.T.);
#511=FACE_BOUND('',#443,.T.);
#512=FACE_BOUND('',#12,.T.);
#513=FACE_BOUND('',#444,.T.);
#514=FACE_BOUND('',#445,.T.);
#515=FACE_BOUND('',#446,.T.);
#516=FACE_BOUND('',#13,.T.);
#517=FACE_BOUND('',#447,.T.);
#518=FACE_BOUND('',#448,.T.);
#519=FACE_BOUND('',#449,.T.);
#520=FACE_BOUND('',#14,.T.);
#521=FACE_BOUND('',#450,.T.);
#522=FACE_BOUND('',#451,.T.);
#523=FACE_BOUND('',#452,.T.);
#524=FACE_BOUND('',#15,.T.);
#525=FACE_BOUND('',#453,.T.);
#526=FACE_BOUND('',#454,.T.);
#527=FACE_BOUND('',#455,.T.);
#528=FACE_BOUND('',#456,.T.);
#529=FACE_BOUND('',#457,.T.);
#530=FACE_BOUND('',#458,.T.);
#531=FACE_BOUND('',#459,.T.);
#532=FACE_BOUND('',#460,.T.);
#533=FACE_BOUND('',#461,.T.);
#534=FACE_BOUND('',#462,.T.);
#535=FACE_BOUND('',#463,.T.);
#536=FACE_BOUND('',#464,.T.);
#537=FACE_BOUND('',#465,.T.);
#538=FACE_BOUND('',#466,.T.);
#539=FACE_BOUND('',#467,.T.);
#540=FACE_BOUND('',#468,.T.);
#541=FACE_BOUND('',#469,.T.);
#542=FACE_BOUND('',#470,.T.);
#543=FACE_BOUND('',#471,.T.);
#544=FACE_BOUND('',#472,.T.);
#545=FACE_BOUND('',#473,.T.);
#546=FACE_BOUND('',#474,.T.);
#547=FACE_BOUND('',#475,.T.);
#548=FACE_BOUND('',#476,.T.);
#549=FACE_BOUND('',#477,.T.);
#550=FACE_BOUND('',#478,.T.);
#551=FACE_BOUND('',#479,.T.);
#552=FACE_BOUND('',#480,.T.);
#553=FACE_BOUND('',#481,.T.);
#554=FACE_BOUND('',#482,.T.);
#555=CYLINDRICAL_SURFACE('',#627,0.002);
#556=CYLINDRICAL_SURFACE('',#631,0.002);
#557=CYLINDRICAL_SURFACE('',#635,0.002);
#558=CYLINDRICAL_SURFACE('',#639,0.002);
#559=CYLINDRICAL_SURFACE('',#643,0.0029);
#560=CYLINDRICAL_SURFACE('',#646,0.0029);
#561=CYLINDRICAL_SURFACE('',#649,0.0029);
#562=CYLINDRICAL_SURFACE('',#654,0.0029);
#563=CYLINDRICAL_SURFACE('',#666,0.0011);
#564=CYLINDRICAL_SURFACE('',#669,0.0011);
#565=CYLINDRICAL_SURFACE('',#672,0.0011);
#566=CYLINDRICAL_SURFACE('',#675,0.0011);
#567=CYLINDRICAL_SURFACE('',#695,0.002);
#568=CYLINDRICAL_SURFACE('',#697,0.002);
#569=CYLINDRICAL_SURFACE('',#699,0.002);
#570=CYLINDRICAL_SURFACE('',#701,0.002);
#571=CYLINDRICAL_SURFACE('',#702,0.00125);
#572=CYLINDRICAL_SURFACE('',#703,0.00125);
#573=CYLINDRICAL_SURFACE('',#704,0.00125);
#574=CYLINDRICAL_SURFACE('',#705,0.00125);
#575=ADVANCED_FACE('',(#483),#555,.F.);
#576=ADVANCED_FACE('',(#484),#20,.F.);
#577=ADVANCED_FACE('',(#485),#556,.F.);
#578=ADVANCED_FACE('',(#486),#21,.T.);
#579=ADVANCED_FACE('',(#487),#557,.F.);
#580=ADVANCED_FACE('',(#488),#22,.T.);
#581=ADVANCED_FACE('',(#489),#558,.F.);
#582=ADVANCED_FACE('',(#490),#23,.F.);
#583=ADVANCED_FACE('',(#491,#492),#559,.T.);
#584=ADVANCED_FACE('',(#493,#494),#560,.T.);
#585=ADVANCED_FACE('',(#495,#496),#561,.T.);
#586=ADVANCED_FACE('',(#497,#498,#499,#500,#501),#24,.T.);
#587=ADVANCED_FACE('',(#502,#503),#562,.T.);
#588=ADVANCED_FACE('',(#504,#505),#25,.T.);
#589=ADVANCED_FACE('',(#506,#507),#26,.T.);
#590=ADVANCED_FACE('',(#508,#509),#27,.T.);
#591=ADVANCED_FACE('',(#510,#511),#28,.T.);
#592=ADVANCED_FACE('',(#512,#513),#16,.F.);
#593=ADVANCED_FACE('',(#514,#515),#563,.F.);
#594=ADVANCED_FACE('',(#516,#517),#17,.F.);
#595=ADVANCED_FACE('',(#518,#519),#564,.F.);
#596=ADVANCED_FACE('',(#520,#521),#18,.F.);
#597=ADVANCED_FACE('',(#522,#523),#565,.F.);
#598=ADVANCED_FACE('',(#524,#525),#19,.F.);
#599=ADVANCED_FACE('',(#526,#527),#566,.F.);
#600=ADVANCED_FACE('',(#528,#529,#530,#531,#532,#533),#29,.T.);
#601=ADVANCED_FACE('',(#534,#535,#536,#537,#538),#30,.F.);
#602=ADVANCED_FACE('',(#539),#31,.F.);
#603=ADVANCED_FACE('',(#540),#567,.T.);
#604=ADVANCED_FACE('',(#541),#32,.T.);
#605=ADVANCED_FACE('',(#542),#568,.T.);
#606=ADVANCED_FACE('',(#543),#33,.T.);
#607=ADVANCED_FACE('',(#544),#569,.T.);
#608=ADVANCED_FACE('',(#545),#34,.F.);
#609=ADVANCED_FACE('',(#546),#570,.T.);
#610=ADVANCED_FACE('',(#547,#548),#571,.F.);
#611=ADVANCED_FACE('',(#549,#550),#572,.F.);
#612=ADVANCED_FACE('',(#551,#552),#573,.F.);
#613=ADVANCED_FACE('',(#553,#554),#574,.F.);
#614=CLOSED_SHELL('',(#575,#576,#577,#578,#579,#580,#581,#582,#583,#584,
#585,#586,#587,#588,#589,#590,#591,#592,#593,#594,#595,#596,#597,#598,#599,
#600,#601,#602,#603,#604,#605,#606,#607,#608,#609,#610,#611,#612,#613));
#615=STYLED_ITEM('',(#616),#623);
#616=PRESENTATION_STYLE_ASSIGNMENT((#617));
#617=SURFACE_STYLE_USAGE(.BOTH.,#618);
#618=SURFACE_SIDE_STYLE('',(#619));
#619=SURFACE_STYLE_FILL_AREA(#620);
#620=FILL_AREA_STYLE('',(#621));
#621=FILL_AREA_STYLE_COLOUR('',#622);
#622=COLOUR_RGB('',0.4,0.4,0.4);
#623=MANIFOLD_SOLID_BREP('Bottom',#614);
#624=SHAPE_DEFINITION_REPRESENTATION(#1076,#625);
#625=SHAPE_REPRESENTATION('Bottom',(#626),#1071);
#626=AXIS2_PLACEMENT_3D('',#898,#706,#707);
#627=AXIS2_PLACEMENT_3D('',#899,#708,#709);
#628=AXIS2_PLACEMENT_3D('',#900,#710,#711);
#629=AXIS2_PLACEMENT_3D('',#905,#713,#714);
#630=AXIS2_PLACEMENT_3D('',#908,#716,#717);
#631=AXIS2_PLACEMENT_3D('',#914,#721,#722);
#632=AXIS2_PLACEMENT_3D('',#915,#723,#724);
#633=AXIS2_PLACEMENT_3D('',#917,#725,#726);
#634=AXIS2_PLACEMENT_3D('',#920,#728,#729);
#635=AXIS2_PLACEMENT_3D('',#926,#733,#734);
#636=AXIS2_PLACEMENT_3D('',#927,#735,#736);
#637=AXIS2_PLACEMENT_3D('',#929,#737,#738);
#638=AXIS2_PLACEMENT_3D('',#932,#740,#741);
#639=AXIS2_PLACEMENT_3D('',#938,#745,#746);
#640=AXIS2_PLACEMENT_3D('',#939,#747,#748);
#641=AXIS2_PLACEMENT_3D('',#941,#749,#750);
#642=AXIS2_PLACEMENT_3D('',#944,#752,#753);
#643=AXIS2_PLACEMENT_3D('',#947,#756,#757);
#644=AXIS2_PLACEMENT_3D('',#948,#758,#759);
#645=AXIS2_PLACEMENT_3D('',#950,#760,#761);
#646=AXIS2_PLACEMENT_3D('',#952,#762,#763);
#647=AXIS2_PLACEMENT_3D('',#953,#764,#765);
#648=AXIS2_PLACEMENT_3D('',#955,#766,#767);
#649=AXIS2_PLACEMENT_3D('',#957,#768,#769);
#650=AXIS2_PLACEMENT_3D('',#958,#770,#771);
#651=AXIS2_PLACEMENT_3D('',#960,#772,#773);
#652=AXIS2_PLACEMENT_3D('',#962,#774,#775);
#653=AXIS2_PLACEMENT_3D('',#963,#776,#777);
#654=AXIS2_PLACEMENT_3D('',#965,#778,#779);
#655=AXIS2_PLACEMENT_3D('',#966,#780,#781);
#656=AXIS2_PLACEMENT_3D('',#968,#782,#783);
#657=AXIS2_PLACEMENT_3D('',#969,#784,#785);
#658=AXIS2_PLACEMENT_3D('',#971,#786,#787);
#659=AXIS2_PLACEMENT_3D('',#972,#788,#789);
#660=AXIS2_PLACEMENT_3D('',#974,#790,#791);
#661=AXIS2_PLACEMENT_3D('',#975,#792,#793);
#662=AXIS2_PLACEMENT_3D('',#977,#794,#795);
#663=AXIS2_PLACEMENT_3D('',#978,#796,#797);
#664=AXIS2_PLACEMENT_3D('',#980,#798,#799);
#665=AXIS2_PLACEMENT_3D('',#982,#800,#801);
#666=AXIS2_PLACEMENT_3D('',#984,#802,#803);
#667=AXIS2_PLACEMENT_3D('',#985,#804,#805);
#668=AXIS2_PLACEMENT_3D('',#987,#806,#807);
#669=AXIS2_PLACEMENT_3D('',#989,#808,#809);
#670=AXIS2_PLACEMENT_3D('',#990,#810,#811);
#671=AXIS2_PLACEMENT_3D('',#992,#812,#813);
#672=AXIS2_PLACEMENT_3D('',#994,#814,#815);
#673=AXIS2_PLACEMENT_3D('',#995,#816,#817);
#674=AXIS2_PLACEMENT_3D('',#997,#818,#819);
#675=AXIS2_PLACEMENT_3D('',#999,#820,#821);
#676=AXIS2_PLACEMENT_3D('',#1000,#822,#823);
#677=AXIS2_PLACEMENT_3D('',#1001,#824,#825);
#678=AXIS2_PLACEMENT_3D('',#1003,#826,#827);
#679=AXIS2_PLACEMENT_3D('',#1005,#828,#829);
#680=AXIS2_PLACEMENT_3D('',#1007,#830,#831);
#681=AXIS2_PLACEMENT_3D('',#1009,#832,#833);
#682=AXIS2_PLACEMENT_3D('',#1014,#835,#836);
#683=AXIS2_PLACEMENT_3D('',#1018,#838,#839);
#684=AXIS2_PLACEMENT_3D('',#1022,#841,#842);
#685=AXIS2_PLACEMENT_3D('',#1025,#844,#845);
#686=AXIS2_PLACEMENT_3D('',#1026,#846,#847);
#687=AXIS2_PLACEMENT_3D('',#1028,#848,#849);
#688=AXIS2_PLACEMENT_3D('',#1030,#850,#851);
#689=AXIS2_PLACEMENT_3D('',#1032,#852,#853);
#690=AXIS2_PLACEMENT_3D('',#1037,#855,#856);
#691=AXIS2_PLACEMENT_3D('',#1041,#858,#859);
#692=AXIS2_PLACEMENT_3D('',#1045,#861,#862);
#693=AXIS2_PLACEMENT_3D('',#1049,#864,#865);
#694=AXIS2_PLACEMENT_3D('',#1050,#866,#867);
#695=AXIS2_PLACEMENT_3D('',#1053,#870,#871);
#696=AXIS2_PLACEMENT_3D('',#1055,#873,#874);
#697=AXIS2_PLACEMENT_3D('',#1057,#876,#877);
#698=AXIS2_PLACEMENT_3D('',#1059,#879,#880);
#699=AXIS2_PLACEMENT_3D('',#1061,#882,#883);
#700=AXIS2_PLACEMENT_3D('',#1063,#885,#886);
#701=AXIS2_PLACEMENT_3D('',#1065,#888,#889);
#702=AXIS2_PLACEMENT_3D('',#1066,#890,#891);
#703=AXIS2_PLACEMENT_3D('',#1067,#892,#893);
#704=AXIS2_PLACEMENT_3D('',#1068,#894,#895);
#705=AXIS2_PLACEMENT_3D('',#1069,#896,#897);
#706=DIRECTION('',(0.,0.,1.));
#707=DIRECTION('',(1.,0.,0.));
#708=DIRECTION('',(0.,0.,-1.));
#709=DIRECTION('',(-1.,0.,0.));
#710=DIRECTION('',(0.,0.,1.));
#711=DIRECTION('',(1.,0.,0.));
#712=DIRECTION('',(0.,0.,1.));
#713=DIRECTION('',(0.,0.,1.));
#714=DIRECTION('',(1.,0.,0.));
#715=DIRECTION('',(0.,0.,1.));
#716=DIRECTION('',(-1.44560289664734E-16,1.,0.));
#717=DIRECTION('',(-1.,-1.44560289664734E-16,0.));
#718=DIRECTION('',(-1.,-1.44560289664734E-16,0.));
#719=DIRECTION('',(0.,0.,1.));
#720=DIRECTION('',(-1.,-1.44560289664734E-16,0.));
#721=DIRECTION('',(0.,0.,1.));
#722=DIRECTION('',(1.,0.,0.));
#723=DIRECTION('',(0.,0.,1.));
#724=DIRECTION('',(1.,0.,0.));
#725=DIRECTION('',(0.,0.,1.));
#726=DIRECTION('',(1.,0.,0.));
#727=DIRECTION('',(0.,0.,1.));
#728=DIRECTION('',(1.,0.,0.));
#729=DIRECTION('',(0.,0.,-1.));
#730=DIRECTION('',(0.,1.,0.));
#731=DIRECTION('',(0.,0.,1.));
#732=DIRECTION('',(0.,1.,0.));
#733=DIRECTION('',(0.,0.,-1.));
#734=DIRECTION('',(-1.,0.,0.));
#735=DIRECTION('',(0.,0.,1.));
#736=DIRECTION('',(1.,0.,0.));
#737=DIRECTION('',(0.,0.,1.));
#738=DIRECTION('',(1.,0.,0.));
#739=DIRECTION('',(0.,0.,1.));
#740=DIRECTION('',(-1.44560289664734E-16,1.,0.));
#741=DIRECTION('',(-1.,-1.44560289664734E-16,0.));
#742=DIRECTION('',(-1.,-1.44560289664734E-16,0.));
#743=DIRECTION('',(0.,0.,1.));
#744=DIRECTION('',(-1.,-1.44560289664734E-16,0.));
#745=DIRECTION('',(0.,0.,1.));
#746=DIRECTION('',(1.,0.,0.));
#747=DIRECTION('',(0.,0.,1.));
#748=DIRECTION('',(1.,0.,0.));
#749=DIRECTION('',(0.,0.,1.));
#750=DIRECTION('',(1.,0.,0.));
#751=DIRECTION('',(0.,0.,1.));
#752=DIRECTION('',(1.,0.,0.));
#753=DIRECTION('',(0.,0.,-1.));
#754=DIRECTION('',(0.,1.,0.));
#755=DIRECTION('',(0.,1.,0.));
#756=DIRECTION('',(0.,0.,-1.));
#757=DIRECTION('',(-1.,0.,0.));
#758=DIRECTION('',(0.,0.,1.));
#759=DIRECTION('',(1.,0.,0.));
#760=DIRECTION('',(0.,0.,1.));
#761=DIRECTION('',(1.,0.,0.));
#762=DIRECTION('',(0.,0.,-1.));
#763=DIRECTION('',(-1.,0.,0.));
#764=DIRECTION('',(0.,0.,1.));
#765=DIRECTION('',(1.,0.,0.));
#766=DIRECTION('',(0.,0.,1.));
#767=DIRECTION('',(1.,0.,0.));
#768=DIRECTION('',(0.,0.,-1.));
#769=DIRECTION('',(-1.,0.,0.));
#770=DIRECTION('',(0.,0.,1.));
#771=DIRECTION('',(1.,0.,0.));
#772=DIRECTION('',(0.,0.,1.));
#773=DIRECTION('',(1.,0.,0.));
#774=DIRECTION('',(0.,0.,1.));
#775=DIRECTION('',(1.,0.,0.));
#776=DIRECTION('',(0.,0.,1.));
#777=DIRECTION('',(1.,0.,0.));
#778=DIRECTION('',(0.,0.,-1.));
#779=DIRECTION('',(-1.,0.,0.));
#780=DIRECTION('',(0.,0.,1.));
#781=DIRECTION('',(1.,0.,0.));
#782=DIRECTION('',(0.,0.,1.));
#783=DIRECTION('',(1.,0.,0.));
#784=DIRECTION('',(0.,0.,-1.));
#785=DIRECTION('',(-1.,0.,0.));
#786=DIRECTION('',(0.,0.,1.));
#787=DIRECTION('',(1.,0.,0.));
#788=DIRECTION('',(0.,0.,-1.));
#789=DIRECTION('',(-1.,0.,0.));
#790=DIRECTION('',(0.,0.,1.));
#791=DIRECTION('',(1.,0.,0.));
#792=DIRECTION('',(0.,0.,-1.));
#793=DIRECTION('',(-1.,0.,0.));
#794=DIRECTION('',(0.,0.,1.));
#795=DIRECTION('',(1.,0.,0.));
#796=DIRECTION('',(0.,0.,-1.));
#797=DIRECTION('',(-1.,0.,0.));
#798=DIRECTION('',(0.,0.,1.));
#799=DIRECTION('',(1.,0.,0.));
#800=DIRECTION('',(0.,0.,-1.));
#801=DIRECTION('',(-1.,0.,0.));
#802=DIRECTION('',(0.,0.,-1.));
#803=DIRECTION('',(-1.,0.,0.));
#804=DIRECTION('',(0.,0.,1.));
#805=DIRECTION('',(1.,0.,0.));
#806=DIRECTION('',(0.,0.,-1.));
#807=DIRECTION('',(-1.,0.,0.));
#808=DIRECTION('',(0.,0.,-1.));
#809=DIRECTION('',(-1.,0.,0.));
#810=DIRECTION('',(0.,0.,1.));
#811=DIRECTION('',(1.,0.,0.));
#812=DIRECTION('',(0.,0.,-1.));
#813=DIRECTION('',(-1.,0.,0.));
#814=DIRECTION('',(0.,0.,-1.));
#815=DIRECTION('',(-1.,0.,0.));
#816=DIRECTION('',(0.,0.,1.));
#817=DIRECTION('',(1.,0.,0.));
#818=DIRECTION('',(0.,0.,-1.));
#819=DIRECTION('',(-1.,0.,0.));
#820=DIRECTION('',(0.,0.,-1.));
#821=DIRECTION('',(-1.,0.,0.));
#822=DIRECTION('',(0.,0.,1.));
#823=DIRECTION('',(1.,0.,0.));
#824=DIRECTION('',(0.,0.,1.));
#825=DIRECTION('',(1.,0.,0.));
#826=DIRECTION('',(0.,0.,1.));
#827=DIRECTION('',(1.,0.,0.));
#828=DIRECTION('',(0.,0.,1.));
#829=DIRECTION('',(1.,0.,0.));
#830=DIRECTION('',(0.,0.,1.));
#831=DIRECTION('',(1.,0.,0.));
#832=DIRECTION('',(0.,0.,1.));
#833=DIRECTION('',(1.,0.,0.));
#834=DIRECTION('',(-1.,-1.32169407693471E-16,0.));
#835=DIRECTION('',(0.,0.,1.));
#836=DIRECTION('',(1.,0.,0.));
#837=DIRECTION('',(0.,1.,0.));
#838=DIRECTION('',(0.,0.,1.));
#839=DIRECTION('',(1.,0.,0.));
#840=DIRECTION('',(-1.,-1.32169407693471E-16,0.));
#841=DIRECTION('',(0.,0.,1.));
#842=DIRECTION('',(1.,0.,0.));
#843=DIRECTION('',(0.,1.,0.));
#844=DIRECTION('',(0.,0.,1.));
#845=DIRECTION('',(1.,0.,0.));
#846=DIRECTION('',(0.,0.,1.));
#847=DIRECTION('',(1.,0.,0.));
#848=DIRECTION('',(0.,0.,1.));
#849=DIRECTION('',(1.,0.,0.));
#850=DIRECTION('',(0.,0.,1.));
#851=DIRECTION('',(1.,0.,0.));
#852=DIRECTION('',(0.,0.,1.));
#853=DIRECTION('',(1.,0.,0.));
#854=DIRECTION('',(-1.,-1.32169407693471E-16,0.));
#855=DIRECTION('',(0.,0.,1.));
#856=DIRECTION('',(1.,0.,0.));
#857=DIRECTION('',(0.,1.,0.));
#858=DIRECTION('',(0.,0.,1.));
#859=DIRECTION('',(1.,0.,0.));
#860=DIRECTION('',(-1.,-1.32169407693471E-16,0.));
#861=DIRECTION('',(0.,0.,1.));
#862=DIRECTION('',(1.,0.,0.));
#863=DIRECTION('',(0.,1.,0.));
#864=DIRECTION('',(0.,0.,1.));
#865=DIRECTION('',(1.,0.,0.));
#866=DIRECTION('',(1.,0.,0.));
#867=DIRECTION('',(0.,0.,-1.));
#868=DIRECTION('',(0.,0.,1.));
#869=DIRECTION('',(0.,0.,1.));
#870=DIRECTION('',(0.,0.,-1.));
#871=DIRECTION('',(-1.,0.,0.));
#872=DIRECTION('',(0.,0.,1.));
#873=DIRECTION('',(-1.32169407693471E-16,1.,0.));
#874=DIRECTION('',(-1.,-1.32169407693471E-16,0.));
#875=DIRECTION('',(0.,0.,1.));
#876=DIRECTION('',(0.,0.,1.));
#877=DIRECTION('',(1.,0.,0.));
#878=DIRECTION('',(0.,0.,1.));
#879=DIRECTION('',(1.,0.,0.));
#880=DIRECTION('',(0.,0.,-1.));
#881=DIRECTION('',(0.,0.,1.));
#882=DIRECTION('',(0.,0.,-1.));
#883=DIRECTION('',(-1.,0.,0.));
#884=DIRECTION('',(0.,0.,1.));
#885=DIRECTION('',(-1.32169407693471E-16,1.,0.));
#886=DIRECTION('',(-1.,-1.32169407693471E-16,0.));
#887=DIRECTION('',(0.,0.,1.));
#888=DIRECTION('',(0.,0.,1.));
#889=DIRECTION('',(1.,0.,0.));
#890=DIRECTION('',(0.,0.,1.));
#891=DIRECTION('',(1.,0.,0.));
#892=DIRECTION('',(0.,0.,1.));
#893=DIRECTION('',(1.,0.,0.));
#894=DIRECTION('',(0.,0.,1.));
#895=DIRECTION('',(1.,0.,0.));
#896=DIRECTION('',(0.,0.,1.));
#897=DIRECTION('',(1.,0.,0.));
#898=CARTESIAN_POINT('',(0.,0.,0.));
#899=CARTESIAN_POINT('',(0.046,0.03525,-0.004));
#900=CARTESIAN_POINT('',(0.046,0.03525,-0.004));
#901=CARTESIAN_POINT('',(0.048,0.03525,-0.004));
#902=CARTESIAN_POINT('',(0.046,0.03725,-0.004));
#903=CARTESIAN_POINT('',(0.048,0.03525,-0.004));
#904=CARTESIAN_POINT('',(0.048,0.03525,0.002));
#905=CARTESIAN_POINT('',(0.046,0.03525,0.002));
#906=CARTESIAN_POINT('',(0.046,0.03725,0.002));
#907=CARTESIAN_POINT('',(0.046,0.03725,0.));
#908=CARTESIAN_POINT('',(0.,0.03725,-0.004));
#909=CARTESIAN_POINT('',(0.,0.03725,0.002));
#910=CARTESIAN_POINT('',(-0.046,0.03725,0.002));
#911=CARTESIAN_POINT('',(-0.046,0.03725,-0.004));
#912=CARTESIAN_POINT('',(-0.046,0.03725,-0.004));
#913=CARTESIAN_POINT('',(0.,0.03725,-0.004));
#914=CARTESIAN_POINT('',(-0.046,0.03525,-0.004));
#915=CARTESIAN_POINT('',(-0.046,0.03525,-0.004));
#916=CARTESIAN_POINT('',(-0.048,0.03525,-0.004));
#917=CARTESIAN_POINT('',(-0.046,0.03525,0.002));
#918=CARTESIAN_POINT('',(-0.048,0.03525,0.002));
#919=CARTESIAN_POINT('',(-0.048,0.03525,-0.004));
#920=CARTESIAN_POINT('',(-0.048,-6.93889390390723E-18,-0.004));
#921=CARTESIAN_POINT('',(-0.048,-6.93889390390723E-18,0.002));
#922=CARTESIAN_POINT('',(-0.048,-0.03525,0.002));
#923=CARTESIAN_POINT('',(-0.048,-0.03525,-0.004));
#924=CARTESIAN_POINT('',(-0.048,-0.03525,-0.004));
#925=CARTESIAN_POINT('',(-0.048,-6.93889390390723E-18,-0.004));
#926=CARTESIAN_POINT('',(-0.046,-0.03525,-0.004));
#927=CARTESIAN_POINT('',(-0.046,-0.03525,-0.004));
#928=CARTESIAN_POINT('',(-0.046,-0.03725,-0.004));
#929=CARTESIAN_POINT('',(-0.046,-0.03525,0.002));
#930=CARTESIAN_POINT('',(-0.046,-0.03725,0.002));
#931=CARTESIAN_POINT('',(-0.046,-0.03725,0.));
#932=CARTESIAN_POINT('',(0.,-0.03725,-0.004));
#933=CARTESIAN_POINT('',(0.,-0.03725,0.002));
#934=CARTESIAN_POINT('',(0.046,-0.03725,0.002));
#935=CARTESIAN_POINT('',(0.046,-0.03725,-0.004));
#936=CARTESIAN_POINT('',(0.046,-0.03725,-0.004));
#937=CARTESIAN_POINT('',(0.,-0.03725,-0.004));
#938=CARTESIAN_POINT('',(0.046,-0.03525,-0.004));
#939=CARTESIAN_POINT('',(0.046,-0.03525,-0.004));
#940=CARTESIAN_POINT('',(0.048,-0.03525,-0.004));
#941=CARTESIAN_POINT('',(0.046,-0.03525,0.002));
#942=CARTESIAN_POINT('',(0.048,-0.03525,0.002));
#943=CARTESIAN_POINT('',(0.048,-0.03525,-0.004));
#944=CARTESIAN_POINT('',(0.048,6.93889390390723E-18,-0.004));
#945=CARTESIAN_POINT('',(0.048,6.93889390390723E-18,-0.004));
#946=CARTESIAN_POINT('',(0.048,6.93889390390723E-18,0.002));
#947=CARTESIAN_POINT('',(0.044,0.03325,0.));
#948=CARTESIAN_POINT('',(0.044,0.03325,0.));
#949=CARTESIAN_POINT('',(0.0469,0.03325,0.));
#950=CARTESIAN_POINT('',(0.044,0.03325,-0.004));
#951=CARTESIAN_POINT('',(0.0469,0.03325,-0.004));
#952=CARTESIAN_POINT('',(-0.044,-0.03325,0.));
#953=CARTESIAN_POINT('',(-0.044,-0.03325,0.));
#954=CARTESIAN_POINT('',(-0.0411,-0.03325,0.));
#955=CARTESIAN_POINT('',(-0.044,-0.03325,-0.004));
#956=CARTESIAN_POINT('',(-0.0411,-0.03325,-0.004));
#957=CARTESIAN_POINT('',(0.044,-0.03325,0.));
#958=CARTESIAN_POINT('',(0.044,-0.03325,0.));
#959=CARTESIAN_POINT('',(0.0469,-0.03325,0.));
#960=CARTESIAN_POINT('',(0.044,-0.03325,-0.004));
#961=CARTESIAN_POINT('',(0.0469,-0.03325,-0.004));
#962=CARTESIAN_POINT('',(0.,0.,-0.004));
#963=CARTESIAN_POINT('',(-0.044,0.03325,-0.004));
#964=CARTESIAN_POINT('',(-0.0411,0.03325,-0.004));
#965=CARTESIAN_POINT('',(-0.044,0.03325,0.));
#966=CARTESIAN_POINT('',(-0.044,0.03325,0.));
#967=CARTESIAN_POINT('',(-0.0411,0.03325,0.));
#968=CARTESIAN_POINT('',(0.,0.,0.));
#969=CARTESIAN_POINT('',(0.044,0.03325,0.));
#970=CARTESIAN_POINT('',(0.0429,0.03325,0.));
#971=CARTESIAN_POINT('',(0.,0.,0.));
#972=CARTESIAN_POINT('',(-0.044,-0.03325,0.));
#973=CARTESIAN_POINT('',(-0.0451,-0.03325,0.));
#974=CARTESIAN_POINT('',(0.,0.,0.));
#975=CARTESIAN_POINT('',(0.044,-0.03325,0.));
#976=CARTESIAN_POINT('',(0.0429,-0.03325,0.));
#977=CARTESIAN_POINT('',(0.,0.,0.));
#978=CARTESIAN_POINT('',(-0.044,0.03325,0.));
#979=CARTESIAN_POINT('',(-0.0451,0.03325,0.));
#980=CARTESIAN_POINT('',(-0.044,0.03325,-0.004));
#981=CARTESIAN_POINT('',(-0.044,0.03325,-0.00466094668093032));
#982=CARTESIAN_POINT('',(-0.044,0.03325,-0.004));
#983=CARTESIAN_POINT('',(-0.0451,0.03325,-0.004));
#984=CARTESIAN_POINT('',(-0.044,0.03325,0.));
#985=CARTESIAN_POINT('',(0.044,-0.03325,-0.004));
#986=CARTESIAN_POINT('',(0.044,-0.03325,-0.00466094668093032));
#987=CARTESIAN_POINT('',(0.044,-0.03325,-0.004));
#988=CARTESIAN_POINT('',(0.0429,-0.03325,-0.004));
#989=CARTESIAN_POINT('',(0.044,-0.03325,0.));
#990=CARTESIAN_POINT('',(-0.044,-0.03325,-0.004));
#991=CARTESIAN_POINT('',(-0.044,-0.03325,-0.00466094668093032));
#992=CARTESIAN_POINT('',(-0.044,-0.03325,-0.004));
#993=CARTESIAN_POINT('',(-0.0451,-0.03325,-0.004));
#994=CARTESIAN_POINT('',(-0.044,-0.03325,0.));
#995=CARTESIAN_POINT('',(0.044,0.03325,-0.004));
#996=CARTESIAN_POINT('',(0.044,0.03325,-0.00466094668093032));
#997=CARTESIAN_POINT('',(0.044,0.03325,-0.004));
#998=CARTESIAN_POINT('',(0.0429,0.03325,-0.004));
#999=CARTESIAN_POINT('',(0.044,0.03325,0.));
#1000=CARTESIAN_POINT('',(0.,0.,0.002));
#1001=CARTESIAN_POINT('',(-0.0495,-0.03875,0.002));
#1002=CARTESIAN_POINT('',(-0.04825,-0.03875,0.002));
#1003=CARTESIAN_POINT('',(0.0495,-0.03875,0.002));
#1004=CARTESIAN_POINT('',(0.05075,-0.03875,0.002));
#1005=CARTESIAN_POINT('',(0.0495,0.03875,0.002));
#1006=CARTESIAN_POINT('',(0.05075,0.03875,0.002));
#1007=CARTESIAN_POINT('',(-0.0495,0.03875,0.002));
#1008=CARTESIAN_POINT('',(-0.04825,0.03875,0.002));
#1009=CARTESIAN_POINT('',(-0.0505,-0.03975,0.002));
#1010=CARTESIAN_POINT('',(-0.0525,-0.03975,0.002));
#1011=CARTESIAN_POINT('',(-0.0505,-0.04175,0.002));
#1012=CARTESIAN_POINT('',(0.,-0.04175,0.002));
#1013=CARTESIAN_POINT('',(0.0505,-0.04175,0.002));
#1014=CARTESIAN_POINT('',(0.0505,-0.03975,0.002));
#1015=CARTESIAN_POINT('',(0.0525,-0.03975,0.002));
#1016=CARTESIAN_POINT('',(0.0525,6.93889390390723E-18,0.002));
#1017=CARTESIAN_POINT('',(0.0525,0.03975,0.002));
#1018=CARTESIAN_POINT('',(0.0505,0.03975,0.002));
#1019=CARTESIAN_POINT('',(0.0505,0.04175,0.002));
#1020=CARTESIAN_POINT('',(0.,0.04175,0.002));
#1021=CARTESIAN_POINT('',(-0.0505,0.04175,0.002));
#1022=CARTESIAN_POINT('',(-0.0505,0.03975,0.002));
#1023=CARTESIAN_POINT('',(-0.0525,0.03975,0.002));
#1024=CARTESIAN_POINT('',(-0.0525,-6.93889390390723E-18,0.002));
#1025=CARTESIAN_POINT('',(0.,0.,-0.006));
#1026=CARTESIAN_POINT('',(-0.0495,-0.03875,-0.006));
#1027=CARTESIAN_POINT('',(-0.04825,-0.03875,-0.006));
#1028=CARTESIAN_POINT('',(0.0495,-0.03875,-0.006));
#1029=CARTESIAN_POINT('',(0.05075,-0.03875,-0.006));
#1030=CARTESIAN_POINT('',(0.0495,0.03875,-0.006));
#1031=CARTESIAN_POINT('',(0.05075,0.03875,-0.006));
#1032=CARTESIAN_POINT('',(-0.0495,0.03875,-0.006));
#1033=CARTESIAN_POINT('',(-0.04825,0.03875,-0.006));
#1034=CARTESIAN_POINT('',(0.,-0.04175,-0.006));
#1035=CARTESIAN_POINT('',(0.0505,-0.04175,-0.006));
#1036=CARTESIAN_POINT('',(-0.0505,-0.04175,-0.006));
#1037=CARTESIAN_POINT('',(-0.0505,-0.03975,-0.006));
#1038=CARTESIAN_POINT('',(-0.0525,-0.03975,-0.006));
#1039=CARTESIAN_POINT('',(-0.0525,-6.93889390390723E-18,-0.006));
#1040=CARTESIAN_POINT('',(-0.0525,0.03975,-0.006));
#1041=CARTESIAN_POINT('',(-0.0505,0.03975,-0.006));
#1042=CARTESIAN_POINT('',(-0.0505,0.04175,-0.006));
#1043=CARTESIAN_POINT('',(0.,0.04175,-0.006));
#1044=CARTESIAN_POINT('',(0.0505,0.04175,-0.006));
#1045=CARTESIAN_POINT('',(0.0505,0.03975,-0.006));
#1046=CARTESIAN_POINT('',(0.0525,0.03975,-0.006));
#1047=CARTESIAN_POINT('',(0.0525,6.93889390390723E-18,-0.006));
#1048=CARTESIAN_POINT('',(0.0525,-0.03975,-0.006));
#1049=CARTESIAN_POINT('',(0.0505,-0.03975,-0.006));
#1050=CARTESIAN_POINT('',(-0.0525,-6.93889390390723E-18,-0.006));
#1051=CARTESIAN_POINT('',(-0.0525,-0.03975,-0.006));
#1052=CARTESIAN_POINT('',(-0.0525,0.03975,-0.006));
#1053=CARTESIAN_POINT('',(-0.0505,0.03975,-0.006));
#1054=CARTESIAN_POINT('',(-0.0505,0.04175,0.));
#1055=CARTESIAN_POINT('',(0.,0.04175,-0.006));
#1056=CARTESIAN_POINT('',(0.0505,0.04175,-0.006));
#1057=CARTESIAN_POINT('',(0.0505,0.03975,-0.006));
#1058=CARTESIAN_POINT('',(0.0525,0.03975,-0.006));
#1059=CARTESIAN_POINT('',(0.0525,6.93889390390723E-18,-0.006));
#1060=CARTESIAN_POINT('',(0.0525,-0.03975,-0.006));
#1061=CARTESIAN_POINT('',(0.0505,-0.03975,-0.006));
#1062=CARTESIAN_POINT('',(0.0505,-0.04175,0.));
#1063=CARTESIAN_POINT('',(0.,-0.04175,-0.006));
#1064=CARTESIAN_POINT('',(-0.0505,-0.04175,-0.006));
#1065=CARTESIAN_POINT('',(-0.0505,-0.03975,-0.006));
#1066=CARTESIAN_POINT('',(-0.0495,0.03875,-0.006));
#1067=CARTESIAN_POINT('',(0.0495,0.03875,-0.006));
#1068=CARTESIAN_POINT('',(0.0495,-0.03875,-0.006));
#1069=CARTESIAN_POINT('',(-0.0495,-0.03875,-0.006));
#1070=MECHANICAL_DESIGN_GEOMETRIC_PRESENTATION_REPRESENTATION('',(#615),
#1071);
#1071=(
GEOMETRIC_REPRESENTATION_CONTEXT(3)
GLOBAL_UNCERTAINTY_ASSIGNED_CONTEXT((#1072))
GLOBAL_UNIT_ASSIGNED_CONTEXT((#1075,#1074,#1073))
REPRESENTATION_CONTEXT('Bottom','TOP_LEVEL_ASSEMBLY_PART')
);
#1072=UNCERTAINTY_MEASURE_WITH_UNIT(LENGTH_MEASURE(1.E-8),#1075,
'DISTANCE_ACCURACY_VALUE','Maximum Tolerance applied to model');
#1073=(
NAMED_UNIT(*)
SI_UNIT($,.STERADIAN.)
SOLID_ANGLE_UNIT()
);
#1074=(
NAMED_UNIT(*)
PLANE_ANGLE_UNIT()
SI_UNIT($,.RADIAN.)
);
#1075=(
LENGTH_UNIT()
NAMED_UNIT(*)
SI_UNIT($,.METRE.)
);
#1076=PRODUCT_DEFINITION_SHAPE('','',#1077);
#1077=PRODUCT_DEFINITION('','',#1079,#1078);
#1078=PRODUCT_DEFINITION_CONTEXT('',#1085,'design');
#1079=PRODUCT_DEFINITION_FORMATION_WITH_SPECIFIED_SOURCE('','',#1081,
 .NOT_KNOWN.);
#1080=PRODUCT_RELATED_PRODUCT_CATEGORY('','',(#1081));
#1081=PRODUCT('Bottom','Bottom','Bottom',(#1083));
#1082=PRODUCT_CATEGORY('','');
#1083=PRODUCT_CONTEXT('',#1085,'mechanical');
#1084=APPLICATION_PROTOCOL_DEFINITION('international standard',
'ap242_managed_model_based_3d_engineering',2020,#1085);
#1085=APPLICATION_CONTEXT('managed model based 3d engineering');
ENDSEC;
END-ISO-10303-21;
