ISO-10303-21;
HEADER;
/* Generated by software containing ST-Developer
 * from STEP Tools, Inc. (www.steptools.com) 
 */
/* OPTION: using custom renumber hook */

FILE_DESCRIPTION(
/* description */ ('STEP AP242 Edition 2',
'CAx-IF Rec.Pracs.---Representation and Presentation of Product Manufa
cturing Information (PMI)---4.0---2014-10-13',
'CAx-IF Rec.Pracs.---3D Tessellated Geometry---0.4---2014-09-14','2;1',
'CAx-IF Rec.Pracs.---User Defined Attributes---1.5---2016-08-15'),
/* implementation_level */ '2;1');

FILE_NAME(
/* name */ 'Part Studio 1 - Top',
/* time_stamp */ '2026-07-01T17:44:42Z',
/* author */ (''),
/* organization */ (''),
/* preprocessor_version */ 'ST-DEVELOPER v20',
/* originating_system */ 'ONSHAPE BY PTC INC, 1.217',
/* authorisation */ '  ');

FILE_SCHEMA (('AP242_MANAGED_MODEL_BASED_3D_ENGINEERING_MIM_LF { 1 0 10303 442 3 1 4 }'));
ENDSEC;

DATA;
#10=SHAPE_REPRESENTATION_RELATIONSHIP('','',#693,#11);
#11=ADVANCED_BREP_SHAPE_REPRESENTATION('',(#691),#1133);
#12=VERTEX_LOOP('',#375);
#13=VERTEX_LOOP('',#377);
#14=VERTEX_LOOP('',#379);
#15=VERTEX_LOOP('',#381);
#16=CONICAL_SURFACE('',#742,0.00125,1.02974425867665);
#17=CONICAL_SURFACE('',#745,0.00125,1.02974425867665);
#18=CONICAL_SURFACE('',#748,0.00125,1.02974425867665);
#19=CONICAL_SURFACE('',#751,0.00125,1.02974425867665);
#20=CYLINDRICAL_SURFACE('',#725,0.002);
#21=CYLINDRICAL_SURFACE('',#726,0.002);
#22=CYLINDRICAL_SURFACE('',#727,0.002);
#23=CYLINDRICAL_SURFACE('',#728,0.002);
#24=CYLINDRICAL_SURFACE('',#732,0.01);
#25=CYLINDRICAL_SURFACE('',#740,0.002);
#26=CYLINDRICAL_SURFACE('',#741,0.002);
#27=CYLINDRICAL_SURFACE('',#744,0.00125);
#28=CYLINDRICAL_SURFACE('',#747,0.00125);
#29=CYLINDRICAL_SURFACE('',#750,0.00125);
#30=CYLINDRICAL_SURFACE('',#753,0.00125);
#31=CIRCLE('',#696,0.002);
#32=CIRCLE('',#697,0.002);
#33=CIRCLE('',#699,0.01);
#34=CIRCLE('',#700,0.002);
#35=CIRCLE('',#701,0.002);
#36=CIRCLE('',#702,0.002);
#37=CIRCLE('',#703,0.002);
#38=CIRCLE('',#705,0.01);
#39=CIRCLE('',#707,0.00125);
#40=CIRCLE('',#708,0.00125);
#41=CIRCLE('',#709,0.00125);
#42=CIRCLE('',#710,0.00125);
#43=CIRCLE('',#711,0.002);
#44=CIRCLE('',#712,0.002);
#45=CIRCLE('',#713,0.002);
#46=CIRCLE('',#714,0.002);
#47=CIRCLE('',#721,0.002);
#48=CIRCLE('',#722,0.002);
#49=CIRCLE('',#743,0.00125);
#50=CIRCLE('',#746,0.00125);
#51=CIRCLE('',#749,0.00125);
#52=CIRCLE('',#752,0.00125);
#53=ORIENTED_EDGE('',*,*,#229,.F.);
#54=ORIENTED_EDGE('',*,*,#230,.T.);
#55=ORIENTED_EDGE('',*,*,#231,.F.);
#56=ORIENTED_EDGE('',*,*,#232,.F.);
#57=ORIENTED_EDGE('',*,*,#233,.T.);
#58=ORIENTED_EDGE('',*,*,#234,.T.);
#59=ORIENTED_EDGE('',*,*,#235,.T.);
#60=ORIENTED_EDGE('',*,*,#236,.T.);
#61=ORIENTED_EDGE('',*,*,#237,.T.);
#62=ORIENTED_EDGE('',*,*,#238,.T.);
#63=ORIENTED_EDGE('',*,*,#239,.F.);
#64=ORIENTED_EDGE('',*,*,#240,.T.);
#65=ORIENTED_EDGE('',*,*,#241,.T.);
#66=ORIENTED_EDGE('',*,*,#242,.F.);
#67=ORIENTED_EDGE('',*,*,#243,.T.);
#68=ORIENTED_EDGE('',*,*,#244,.F.);
#69=ORIENTED_EDGE('',*,*,#245,.T.);
#70=ORIENTED_EDGE('',*,*,#246,.T.);
#71=ORIENTED_EDGE('',*,*,#247,.T.);
#72=ORIENTED_EDGE('',*,*,#248,.F.);
#73=ORIENTED_EDGE('',*,*,#249,.T.);
#74=ORIENTED_EDGE('',*,*,#250,.T.);
#75=ORIENTED_EDGE('',*,*,#251,.F.);
#76=ORIENTED_EDGE('',*,*,#252,.F.);
#77=ORIENTED_EDGE('',*,*,#253,.T.);
#78=ORIENTED_EDGE('',*,*,#254,.T.);
#79=ORIENTED_EDGE('',*,*,#255,.F.);
#80=ORIENTED_EDGE('',*,*,#256,.F.);
#81=ORIENTED_EDGE('',*,*,#257,.F.);
#82=ORIENTED_EDGE('',*,*,#258,.T.);
#83=ORIENTED_EDGE('',*,*,#259,.T.);
#84=ORIENTED_EDGE('',*,*,#260,.F.);
#85=ORIENTED_EDGE('',*,*,#261,.F.);
#86=ORIENTED_EDGE('',*,*,#232,.T.);
#87=ORIENTED_EDGE('',*,*,#262,.T.);
#88=ORIENTED_EDGE('',*,*,#263,.F.);
#89=ORIENTED_EDGE('',*,*,#264,.T.);
#90=ORIENTED_EDGE('',*,*,#265,.T.);
#91=ORIENTED_EDGE('',*,*,#266,.F.);
#92=ORIENTED_EDGE('',*,*,#267,.F.);
#93=ORIENTED_EDGE('',*,*,#268,.T.);
#94=ORIENTED_EDGE('',*,*,#269,.T.);
#95=ORIENTED_EDGE('',*,*,#270,.T.);
#96=ORIENTED_EDGE('',*,*,#271,.T.);
#97=ORIENTED_EDGE('',*,*,#230,.F.);
#98=ORIENTED_EDGE('',*,*,#272,.T.);
#99=ORIENTED_EDGE('',*,*,#273,.F.);
#100=ORIENTED_EDGE('',*,*,#274,.T.);
#101=ORIENTED_EDGE('',*,*,#275,.T.);
#102=ORIENTED_EDGE('',*,*,#276,.T.);
#103=ORIENTED_EDGE('',*,*,#277,.T.);
#104=ORIENTED_EDGE('',*,*,#278,.T.);
#105=ORIENTED_EDGE('',*,*,#279,.F.);
#106=ORIENTED_EDGE('',*,*,#280,.T.);
#107=ORIENTED_EDGE('',*,*,#281,.F.);
#108=ORIENTED_EDGE('',*,*,#282,.F.);
#109=ORIENTED_EDGE('',*,*,#234,.F.);
#110=ORIENTED_EDGE('',*,*,#283,.T.);
#111=ORIENTED_EDGE('',*,*,#284,.T.);
#112=ORIENTED_EDGE('',*,*,#285,.F.);
#113=ORIENTED_EDGE('',*,*,#286,.F.);
#114=ORIENTED_EDGE('',*,*,#257,.T.);
#115=ORIENTED_EDGE('',*,*,#287,.T.);
#116=ORIENTED_EDGE('',*,*,#249,.F.);
#117=ORIENTED_EDGE('',*,*,#258,.F.);
#118=ORIENTED_EDGE('',*,*,#286,.T.);
#119=ORIENTED_EDGE('',*,*,#248,.T.);
#120=ORIENTED_EDGE('',*,*,#288,.F.);
#121=ORIENTED_EDGE('',*,*,#259,.F.);
#122=ORIENTED_EDGE('',*,*,#288,.T.);
#123=ORIENTED_EDGE('',*,*,#251,.T.);
#124=ORIENTED_EDGE('',*,*,#289,.F.);
#125=ORIENTED_EDGE('',*,*,#287,.F.);
#126=ORIENTED_EDGE('',*,*,#260,.T.);
#127=ORIENTED_EDGE('',*,*,#289,.T.);
#128=ORIENTED_EDGE('',*,*,#250,.F.);
#129=ORIENTED_EDGE('',*,*,#244,.T.);
#130=ORIENTED_EDGE('',*,*,#290,.T.);
#131=ORIENTED_EDGE('',*,*,#275,.F.);
#132=ORIENTED_EDGE('',*,*,#291,.T.);
#133=ORIENTED_EDGE('',*,*,#292,.F.);
#134=ORIENTED_EDGE('',*,*,#281,.T.);
#135=ORIENTED_EDGE('',*,*,#293,.T.);
#136=ORIENTED_EDGE('',*,*,#246,.F.);
#137=ORIENTED_EDGE('',*,*,#294,.T.);
#138=ORIENTED_EDGE('',*,*,#273,.T.);
#139=ORIENTED_EDGE('',*,*,#295,.T.);
#140=ORIENTED_EDGE('',*,*,#296,.T.);
#141=ORIENTED_EDGE('',*,*,#297,.F.);
#142=ORIENTED_EDGE('',*,*,#298,.T.);
#143=ORIENTED_EDGE('',*,*,#279,.T.);
#144=ORIENTED_EDGE('',*,*,#299,.T.);
#145=ORIENTED_EDGE('',*,*,#240,.F.);
#146=ORIENTED_EDGE('',*,*,#300,.T.);
#147=ORIENTED_EDGE('',*,*,#242,.T.);
#148=ORIENTED_EDGE('',*,*,#301,.T.);
#149=ORIENTED_EDGE('',*,*,#277,.F.);
#150=ORIENTED_EDGE('',*,*,#302,.T.);
#151=ORIENTED_EDGE('',*,*,#241,.F.);
#152=ORIENTED_EDGE('',*,*,#299,.F.);
#153=ORIENTED_EDGE('',*,*,#278,.F.);
#154=ORIENTED_EDGE('',*,*,#301,.F.);
#155=ORIENTED_EDGE('',*,*,#243,.F.);
#156=ORIENTED_EDGE('',*,*,#302,.F.);
#157=ORIENTED_EDGE('',*,*,#276,.F.);
#158=ORIENTED_EDGE('',*,*,#290,.F.);
#159=ORIENTED_EDGE('',*,*,#245,.F.);
#160=ORIENTED_EDGE('',*,*,#291,.F.);
#161=ORIENTED_EDGE('',*,*,#274,.F.);
#162=ORIENTED_EDGE('',*,*,#294,.F.);
#163=ORIENTED_EDGE('',*,*,#247,.F.);
#164=ORIENTED_EDGE('',*,*,#293,.F.);
#165=ORIENTED_EDGE('',*,*,#280,.F.);
#166=ORIENTED_EDGE('',*,*,#300,.F.);
#167=ORIENTED_EDGE('',*,*,#283,.F.);
#168=ORIENTED_EDGE('',*,*,#233,.F.);
#169=ORIENTED_EDGE('',*,*,#261,.T.);
#170=ORIENTED_EDGE('',*,*,#303,.T.);
#171=ORIENTED_EDGE('',*,*,#285,.T.);
#172=ORIENTED_EDGE('',*,*,#304,.F.);
#173=ORIENTED_EDGE('',*,*,#262,.F.);
#174=ORIENTED_EDGE('',*,*,#231,.T.);
#175=ORIENTED_EDGE('',*,*,#284,.F.);
#176=ORIENTED_EDGE('',*,*,#303,.F.);
#177=ORIENTED_EDGE('',*,*,#263,.T.);
#178=ORIENTED_EDGE('',*,*,#304,.T.);
#179=ORIENTED_EDGE('',*,*,#256,.T.);
#180=ORIENTED_EDGE('',*,*,#239,.T.);
#181=ORIENTED_EDGE('',*,*,#305,.T.);
#182=ORIENTED_EDGE('',*,*,#253,.F.);
#183=ORIENTED_EDGE('',*,*,#306,.F.);
#184=ORIENTED_EDGE('',*,*,#265,.F.);
#185=ORIENTED_EDGE('',*,*,#266,.T.);
#186=ORIENTED_EDGE('',*,*,#306,.T.);
#187=ORIENTED_EDGE('',*,*,#252,.T.);
#188=ORIENTED_EDGE('',*,*,#307,.F.);
#189=ORIENTED_EDGE('',*,*,#267,.T.);
#190=ORIENTED_EDGE('',*,*,#307,.T.);
#191=ORIENTED_EDGE('',*,*,#255,.T.);
#192=ORIENTED_EDGE('',*,*,#308,.F.);
#193=ORIENTED_EDGE('',*,*,#308,.T.);
#194=ORIENTED_EDGE('',*,*,#254,.F.);
#195=ORIENTED_EDGE('',*,*,#305,.F.);
#196=ORIENTED_EDGE('',*,*,#264,.F.);
#197=ORIENTED_EDGE('',*,*,#292,.T.);
#198=ORIENTED_EDGE('',*,*,#309,.T.);
#199=ORIENTED_EDGE('',*,*,#235,.F.);
#200=ORIENTED_EDGE('',*,*,#282,.T.);
#201=ORIENTED_EDGE('',*,*,#297,.T.);
#202=ORIENTED_EDGE('',*,*,#310,.T.);
#203=ORIENTED_EDGE('',*,*,#237,.F.);
#204=ORIENTED_EDGE('',*,*,#311,.T.);
#205=ORIENTED_EDGE('',*,*,#229,.T.);
#206=ORIENTED_EDGE('',*,*,#312,.T.);
#207=ORIENTED_EDGE('',*,*,#295,.F.);
#208=ORIENTED_EDGE('',*,*,#272,.F.);
#209=ORIENTED_EDGE('',*,*,#238,.F.);
#210=ORIENTED_EDGE('',*,*,#310,.F.);
#211=ORIENTED_EDGE('',*,*,#296,.F.);
#212=ORIENTED_EDGE('',*,*,#312,.F.);
#213=ORIENTED_EDGE('',*,*,#236,.F.);
#214=ORIENTED_EDGE('',*,*,#309,.F.);
#215=ORIENTED_EDGE('',*,*,#298,.F.);
#216=ORIENTED_EDGE('',*,*,#311,.F.);
#217=ORIENTED_EDGE('',*,*,#313,.F.);
#218=ORIENTED_EDGE('',*,*,#313,.T.);
#219=ORIENTED_EDGE('',*,*,#271,.F.);
#220=ORIENTED_EDGE('',*,*,#314,.F.);
#221=ORIENTED_EDGE('',*,*,#314,.T.);
#222=ORIENTED_EDGE('',*,*,#270,.F.);
#223=ORIENTED_EDGE('',*,*,#315,.F.);
#224=ORIENTED_EDGE('',*,*,#315,.T.);
#225=ORIENTED_EDGE('',*,*,#269,.F.);
#226=ORIENTED_EDGE('',*,*,#316,.F.);
#227=ORIENTED_EDGE('',*,*,#316,.T.);
#228=ORIENTED_EDGE('',*,*,#268,.F.);
#229=EDGE_CURVE('',#317,#318,#383,.T.);
#230=EDGE_CURVE('',#317,#319,#384,.T.);
#231=EDGE_CURVE('',#320,#319,#385,.T.);
#232=EDGE_CURVE('',#321,#320,#386,.T.);
#233=EDGE_CURVE('',#321,#322,#387,.T.);
#234=EDGE_CURVE('',#322,#323,#388,.T.);
#235=EDGE_CURVE('',#323,#324,#389,.T.);
#236=EDGE_CURVE('',#324,#325,#31,.T.);
#237=EDGE_CURVE('',#325,#326,#390,.T.);
#238=EDGE_CURVE('',#326,#318,#32,.T.);
#239=EDGE_CURVE('',#327,#327,#33,.T.);
#240=EDGE_CURVE('',#328,#329,#391,.T.);
#241=EDGE_CURVE('',#329,#330,#34,.T.);
#242=EDGE_CURVE('',#331,#330,#392,.T.);
#243=EDGE_CURVE('',#331,#332,#35,.T.);
#244=EDGE_CURVE('',#333,#332,#393,.T.);
#245=EDGE_CURVE('',#333,#334,#36,.T.);
#246=EDGE_CURVE('',#334,#335,#394,.T.);
#247=EDGE_CURVE('',#335,#328,#37,.T.);
#248=EDGE_CURVE('',#336,#337,#395,.T.);
#249=EDGE_CURVE('',#336,#338,#396,.T.);
#250=EDGE_CURVE('',#338,#339,#397,.T.);
#251=EDGE_CURVE('',#337,#339,#398,.T.);
#252=EDGE_CURVE('',#340,#341,#399,.T.);
#253=EDGE_CURVE('',#340,#342,#400,.T.);
#254=EDGE_CURVE('',#342,#343,#401,.T.);
#255=EDGE_CURVE('',#341,#343,#402,.T.);
#256=EDGE_CURVE('',#344,#344,#38,.T.);
#257=EDGE_CURVE('',#345,#346,#403,.T.);
#258=EDGE_CURVE('',#345,#347,#404,.T.);
#259=EDGE_CURVE('',#347,#348,#405,.T.);
#260=EDGE_CURVE('',#346,#348,#406,.T.);
#261=EDGE_CURVE('',#321,#349,#407,.T.);
#262=EDGE_CURVE('',#320,#350,#408,.T.);
#263=EDGE_CURVE('',#349,#350,#409,.T.);
#264=EDGE_CURVE('',#351,#352,#410,.T.);
#265=EDGE_CURVE('',#352,#353,#411,.T.);
#266=EDGE_CURVE('',#354,#353,#412,.T.);
#267=EDGE_CURVE('',#351,#354,#413,.T.);
#268=EDGE_CURVE('',#355,#355,#39,.T.);
#269=EDGE_CURVE('',#356,#356,#40,.T.);
#270=EDGE_CURVE('',#357,#357,#41,.T.);
#271=EDGE_CURVE('',#358,#358,#42,.T.);
#272=EDGE_CURVE('',#317,#359,#414,.T.);
#273=EDGE_CURVE('',#360,#359,#415,.T.);
#274=EDGE_CURVE('',#360,#361,#43,.F.);
#275=EDGE_CURVE('',#361,#362,#416,.T.);
#276=EDGE_CURVE('',#362,#363,#44,.F.);
#277=EDGE_CURVE('',#363,#364,#417,.T.);
#278=EDGE_CURVE('',#364,#365,#45,.F.);
#279=EDGE_CURVE('',#366,#365,#418,.T.);
#280=EDGE_CURVE('',#366,#367,#46,.F.);
#281=EDGE_CURVE('',#368,#367,#419,.T.);
#282=EDGE_CURVE('',#323,#368,#420,.T.);
#283=EDGE_CURVE('',#322,#369,#421,.T.);
#284=EDGE_CURVE('',#369,#370,#422,.T.);
#285=EDGE_CURVE('',#319,#370,#423,.T.);
#286=EDGE_CURVE('',#345,#336,#424,.T.);
#287=EDGE_CURVE('',#346,#338,#425,.T.);
#288=EDGE_CURVE('',#347,#337,#426,.T.);
#289=EDGE_CURVE('',#348,#339,#427,.T.);
#290=EDGE_CURVE('',#332,#362,#428,.T.);
#291=EDGE_CURVE('',#361,#333,#429,.F.);
#292=EDGE_CURVE('',#368,#371,#430,.T.);
#293=EDGE_CURVE('',#367,#335,#431,.F.);
#294=EDGE_CURVE('',#334,#360,#432,.T.);
#295=EDGE_CURVE('',#359,#372,#433,.T.);
#296=EDGE_CURVE('',#372,#373,#47,.F.);
#297=EDGE_CURVE('',#374,#373,#434,.T.);
#298=EDGE_CURVE('',#374,#371,#48,.F.);
#299=EDGE_CURVE('',#365,#329,#435,.F.);
#300=EDGE_CURVE('',#328,#366,#436,.T.);
#301=EDGE_CURVE('',#330,#364,#437,.T.);
#302=EDGE_CURVE('',#363,#331,#438,.F.);
#303=EDGE_CURVE('',#349,#369,#439,.T.);
#304=EDGE_CURVE('',#350,#370,#440,.T.);
#305=EDGE_CURVE('',#352,#342,#441,.T.);
#306=EDGE_CURVE('',#353,#340,#442,.T.);
#307=EDGE_CURVE('',#354,#341,#443,.T.);
#308=EDGE_CURVE('',#351,#343,#444,.T.);
#309=EDGE_CURVE('',#371,#324,#445,.F.);
#310=EDGE_CURVE('',#373,#326,#446,.F.);
#311=EDGE_CURVE('',#325,#374,#447,.T.);
#312=EDGE_CURVE('',#318,#372,#448,.T.);
#313=EDGE_CURVE('',#376,#376,#49,.T.);
#314=EDGE_CURVE('',#378,#378,#50,.T.);
#315=EDGE_CURVE('',#380,#380,#51,.T.);
#316=EDGE_CURVE('',#382,#382,#52,.T.);
#317=VERTEX_POINT('',#943);
#318=VERTEX_POINT('',#944);
#319=VERTEX_POINT('',#946);
#320=VERTEX_POINT('',#948);
#321=VERTEX_POINT('',#950);
#322=VERTEX_POINT('',#952);
#323=VERTEX_POINT('',#954);
#324=VERTEX_POINT('',#956);
#325=VERTEX_POINT('',#958);
#326=VERTEX_POINT('',#960);
#327=VERTEX_POINT('',#964);
#328=VERTEX_POINT('',#966);
#329=VERTEX_POINT('',#967);
#330=VERTEX_POINT('',#969);
#331=VERTEX_POINT('',#971);
#332=VERTEX_POINT('',#973);
#333=VERTEX_POINT('',#975);
#334=VERTEX_POINT('',#977);
#335=VERTEX_POINT('',#979);
#336=VERTEX_POINT('',#982);
#337=VERTEX_POINT('',#983);
#338=VERTEX_POINT('',#985);
#339=VERTEX_POINT('',#987);
#340=VERTEX_POINT('',#990);
#341=VERTEX_POINT('',#991);
#342=VERTEX_POINT('',#993);
#343=VERTEX_POINT('',#995);
#344=VERTEX_POINT('',#999);
#345=VERTEX_POINT('',#1001);
#346=VERTEX_POINT('',#1002);
#347=VERTEX_POINT('',#1004);
#348=VERTEX_POINT('',#1006);
#349=VERTEX_POINT('',#1009);
#350=VERTEX_POINT('',#1011);
#351=VERTEX_POINT('',#1014);
#352=VERTEX_POINT('',#1015);
#353=VERTEX_POINT('',#1017);
#354=VERTEX_POINT('',#1019);
#355=VERTEX_POINT('',#1023);
#356=VERTEX_POINT('',#1025);
#357=VERTEX_POINT('',#1027);
#358=VERTEX_POINT('',#1029);
#359=VERTEX_POINT('',#1031);
#360=VERTEX_POINT('',#1033);
#361=VERTEX_POINT('',#1035);
#362=VERTEX_POINT('',#1037);
#363=VERTEX_POINT('',#1039);
#364=VERTEX_POINT('',#1041);
#365=VERTEX_POINT('',#1043);
#366=VERTEX_POINT('',#1045);
#367=VERTEX_POINT('',#1047);
#368=VERTEX_POINT('',#1049);
#369=VERTEX_POINT('',#1052);
#370=VERTEX_POINT('',#1054);
#371=VERTEX_POINT('',#1069);
#372=VERTEX_POINT('',#1073);
#373=VERTEX_POINT('',#1075);
#374=VERTEX_POINT('',#1077);
#375=VERTEX_POINT('',#1113);
#376=VERTEX_POINT('',#1115);
#377=VERTEX_POINT('',#1118);
#378=VERTEX_POINT('',#1120);
#379=VERTEX_POINT('',#1123);
#380=VERTEX_POINT('',#1125);
#381=VERTEX_POINT('',#1128);
#382=VERTEX_POINT('',#1130);
#383=LINE('',#942,#449);
#384=LINE('',#945,#450);
#385=LINE('',#947,#451);
#386=LINE('',#949,#452);
#387=LINE('',#951,#453);
#388=LINE('',#953,#454);
#389=LINE('',#955,#455);
#390=LINE('',#959,#456);
#391=LINE('',#965,#457);
#392=LINE('',#970,#458);
#393=LINE('',#974,#459);
#394=LINE('',#978,#460);
#395=LINE('',#981,#461);
#396=LINE('',#984,#462);
#397=LINE('',#986,#463);
#398=LINE('',#988,#464);
#399=LINE('',#989,#465);
#400=LINE('',#992,#466);
#401=LINE('',#994,#467);
#402=LINE('',#996,#468);
#403=LINE('',#1000,#469);
#404=LINE('',#1003,#470);
#405=LINE('',#1005,#471);
#406=LINE('',#1007,#472);
#407=LINE('',#1008,#473);
#408=LINE('',#1010,#474);
#409=LINE('',#1012,#475);
#410=LINE('',#1013,#476);
#411=LINE('',#1016,#477);
#412=LINE('',#1018,#478);
#413=LINE('',#1020,#479);
#414=LINE('',#1030,#480);
#415=LINE('',#1032,#481);
#416=LINE('',#1036,#482);
#417=LINE('',#1040,#483);
#418=LINE('',#1044,#484);
#419=LINE('',#1048,#485);
#420=LINE('',#1050,#486);
#421=LINE('',#1051,#487);
#422=LINE('',#1053,#488);
#423=LINE('',#1055,#489);
#424=LINE('',#1057,#490);
#425=LINE('',#1058,#491);
#426=LINE('',#1060,#492);
#427=LINE('',#1062,#493);
#428=LINE('',#1065,#494);
#429=LINE('',#1066,#495);
#430=LINE('',#1068,#496);
#431=LINE('',#1070,#497);
#432=LINE('',#1071,#498);
#433=LINE('',#1072,#499);
#434=LINE('',#1076,#500);
#435=LINE('',#1080,#501);
#436=LINE('',#1081,#502);
#437=LINE('',#1083,#503);
#438=LINE('',#1084,#504);
#439=LINE('',#1090,#505);
#440=LINE('',#1092,#506);
#441=LINE('',#1096,#507);
#442=LINE('',#1097,#508);
#443=LINE('',#1099,#509);
#444=LINE('',#1101,#510);
#445=LINE('',#1104,#511);
#446=LINE('',#1106,#512);
#447=LINE('',#1107,#513);
#448=LINE('',#1109,#514);
#449=VECTOR('',#758,1.);
#450=VECTOR('',#759,1.);
#451=VECTOR('',#760,1.);
#452=VECTOR('',#761,1.);
#453=VECTOR('',#762,1.);
#454=VECTOR('',#763,1.);
#455=VECTOR('',#764,1.);
#456=VECTOR('',#767,1.);
#457=VECTOR('',#774,1.);
#458=VECTOR('',#777,1.);
#459=VECTOR('',#780,1.);
#460=VECTOR('',#783,1.);
#461=VECTOR('',#786,1.);
#462=VECTOR('',#787,1.);
#463=VECTOR('',#788,1.);
#464=VECTOR('',#789,1.);
#465=VECTOR('',#790,1.);
#466=VECTOR('',#791,1.);
#467=VECTOR('',#792,1.);
#468=VECTOR('',#793,1.);
#469=VECTOR('',#798,1.);
#470=VECTOR('',#799,1.);
#471=VECTOR('',#800,1.);
#472=VECTOR('',#801,1.);
#473=VECTOR('',#802,1.);
#474=VECTOR('',#803,1.);
#475=VECTOR('',#804,1.);
#476=VECTOR('',#805,1.);
#477=VECTOR('',#806,1.);
#478=VECTOR('',#807,1.);
#479=VECTOR('',#808,1.);
#480=VECTOR('',#819,1.);
#481=VECTOR('',#820,1.);
#482=VECTOR('',#823,1.);
#483=VECTOR('',#826,1.);
#484=VECTOR('',#829,1.);
#485=VECTOR('',#832,1.);
#486=VECTOR('',#833,1.);
#487=VECTOR('',#834,1.);
#488=VECTOR('',#835,1.);
#489=VECTOR('',#836,1.);
#490=VECTOR('',#839,1.);
#491=VECTOR('',#840,1.);
#492=VECTOR('',#843,1.);
#493=VECTOR('',#846,1.);
#494=VECTOR('',#851,1.);
#495=VECTOR('',#852,1.);
#496=VECTOR('',#855,1.);
#497=VECTOR('',#856,1.);
#498=VECTOR('',#857,1.);
#499=VECTOR('',#858,1.);
#500=VECTOR('',#861,1.);
#501=VECTOR('',#866,1.);
#502=VECTOR('',#867,1.);
#503=VECTOR('',#870,1.);
#504=VECTOR('',#871,1.);
#505=VECTOR('',#882,1.);
#506=VECTOR('',#885,1.);
#507=VECTOR('',#892,1.);
#508=VECTOR('',#893,1.);
#509=VECTOR('',#896,1.);
#510=VECTOR('',#899,1.);
#511=VECTOR('',#904,1.);
#512=VECTOR('',#907,1.);
#513=VECTOR('',#908,1.);
#514=VECTOR('',#911,1.);
#515=EDGE_LOOP('',(#53,#54,#55,#56,#57,#58,#59,#60,#61,#62));
#516=EDGE_LOOP('',(#63));
#517=EDGE_LOOP('',(#64,#65,#66,#67,#68,#69,#70,#71));
#518=EDGE_LOOP('',(#72,#73,#74,#75));
#519=EDGE_LOOP('',(#76,#77,#78,#79));
#520=EDGE_LOOP('',(#80));
#521=EDGE_LOOP('',(#81,#82,#83,#84));
#522=EDGE_LOOP('',(#85,#86,#87,#88));
#523=EDGE_LOOP('',(#89,#90,#91,#92));
#524=EDGE_LOOP('',(#93));
#525=EDGE_LOOP('',(#94));
#526=EDGE_LOOP('',(#95));
#527=EDGE_LOOP('',(#96));
#528=EDGE_LOOP('',(#97,#98,#99,#100,#101,#102,#103,#104,#105,#106,#107,
#108,#109,#110,#111,#112));
#529=EDGE_LOOP('',(#113,#114,#115,#116));
#530=EDGE_LOOP('',(#117,#118,#119,#120));
#531=EDGE_LOOP('',(#121,#122,#123,#124));
#532=EDGE_LOOP('',(#125,#126,#127,#128));
#533=EDGE_LOOP('',(#129,#130,#131,#132));
#534=EDGE_LOOP('',(#133,#134,#135,#136,#137,#138,#139,#140,#141,#142));
#535=EDGE_LOOP('',(#143,#144,#145,#146));
#536=EDGE_LOOP('',(#147,#148,#149,#150));
#537=EDGE_LOOP('',(#151,#152,#153,#154));
#538=EDGE_LOOP('',(#155,#156,#157,#158));
#539=EDGE_LOOP('',(#159,#160,#161,#162));
#540=EDGE_LOOP('',(#163,#164,#165,#166));
#541=EDGE_LOOP('',(#167,#168,#169,#170));
#542=EDGE_LOOP('',(#171,#172,#173,#174));
#543=EDGE_LOOP('',(#175,#176,#177,#178));
#544=EDGE_LOOP('',(#179));
#545=EDGE_LOOP('',(#180));
#546=EDGE_LOOP('',(#181,#182,#183,#184));
#547=EDGE_LOOP('',(#185,#186,#187,#188));
#548=EDGE_LOOP('',(#189,#190,#191,#192));
#549=EDGE_LOOP('',(#193,#194,#195,#196));
#550=EDGE_LOOP('',(#197,#198,#199,#200));
#551=EDGE_LOOP('',(#201,#202,#203,#204));
#552=EDGE_LOOP('',(#205,#206,#207,#208));
#553=EDGE_LOOP('',(#209,#210,#211,#212));
#554=EDGE_LOOP('',(#213,#214,#215,#216));
#555=EDGE_LOOP('',(#217));
#556=EDGE_LOOP('',(#218));
#557=EDGE_LOOP('',(#219));
#558=EDGE_LOOP('',(#220));
#559=EDGE_LOOP('',(#221));
#560=EDGE_LOOP('',(#222));
#561=EDGE_LOOP('',(#223));
#562=EDGE_LOOP('',(#224));
#563=EDGE_LOOP('',(#225));
#564=EDGE_LOOP('',(#226));
#565=EDGE_LOOP('',(#227));
#566=EDGE_LOOP('',(#228));
#567=FACE_BOUND('',#515,.T.);
#568=FACE_BOUND('',#516,.T.);
#569=FACE_BOUND('',#517,.T.);
#570=FACE_BOUND('',#518,.T.);
#571=FACE_BOUND('',#519,.T.);
#572=FACE_BOUND('',#520,.T.);
#573=FACE_BOUND('',#521,.T.);
#574=FACE_BOUND('',#522,.T.);
#575=FACE_BOUND('',#523,.T.);
#576=FACE_BOUND('',#524,.T.);
#577=FACE_BOUND('',#525,.T.);
#578=FACE_BOUND('',#526,.T.);
#579=FACE_BOUND('',#527,.T.);
#580=FACE_BOUND('',#528,.T.);
#581=FACE_BOUND('',#529,.T.);
#582=FACE_BOUND('',#530,.T.);
#583=FACE_BOUND('',#531,.T.);
#584=FACE_BOUND('',#532,.T.);
#585=FACE_BOUND('',#533,.T.);
#586=FACE_BOUND('',#534,.T.);
#587=FACE_BOUND('',#535,.T.);
#588=FACE_BOUND('',#536,.T.);
#589=FACE_BOUND('',#537,.T.);
#590=FACE_BOUND('',#538,.T.);
#591=FACE_BOUND('',#539,.T.);
#592=FACE_BOUND('',#540,.T.);
#593=FACE_BOUND('',#541,.T.);
#594=FACE_BOUND('',#542,.T.);
#595=FACE_BOUND('',#543,.T.);
#596=FACE_BOUND('',#544,.T.);
#597=FACE_BOUND('',#545,.T.);
#598=FACE_BOUND('',#546,.T.);
#599=FACE_BOUND('',#547,.T.);
#600=FACE_BOUND('',#548,.T.);
#601=FACE_BOUND('',#549,.T.);
#602=FACE_BOUND('',#550,.T.);
#603=FACE_BOUND('',#551,.T.);
#604=FACE_BOUND('',#552,.T.);
#605=FACE_BOUND('',#553,.T.);
#606=FACE_BOUND('',#554,.T.);
#607=FACE_BOUND('',#12,.T.);
#608=FACE_BOUND('',#555,.T.);
#609=FACE_BOUND('',#556,.T.);
#610=FACE_BOUND('',#557,.T.);
#611=FACE_BOUND('',#13,.T.);
#612=FACE_BOUND('',#558,.T.);
#613=FACE_BOUND('',#559,.T.);
#614=FACE_BOUND('',#560,.T.);
#615=FACE_BOUND('',#14,.T.);
#616=FACE_BOUND('',#561,.T.);
#617=FACE_BOUND('',#562,.T.);
#618=FACE_BOUND('',#563,.T.);
#619=FACE_BOUND('',#15,.T.);
#620=FACE_BOUND('',#564,.T.);
#621=FACE_BOUND('',#565,.T.);
#622=FACE_BOUND('',#566,.T.);
#623=PLANE('',#695);
#624=PLANE('',#698);
#625=PLANE('',#704);
#626=PLANE('',#706);
#627=PLANE('',#715);
#628=PLANE('',#716);
#629=PLANE('',#717);
#630=PLANE('',#718);
#631=PLANE('',#719);
#632=PLANE('',#720);
#633=PLANE('',#723);
#634=PLANE('',#724);
#635=PLANE('',#729);
#636=PLANE('',#730);
#637=PLANE('',#731);
#638=PLANE('',#733);
#639=PLANE('',#734);
#640=PLANE('',#735);
#641=PLANE('',#736);
#642=PLANE('',#737);
#643=PLANE('',#738);
#644=PLANE('',#739);
#645=ADVANCED_FACE('',(#567),#623,.F.);
#646=ADVANCED_FACE('',(#568,#569,#570,#571),#624,.T.);
#647=ADVANCED_FACE('',(#572,#573,#574,#575),#625,.T.);
#648=ADVANCED_FACE('',(#576,#577,#578,#579,#580),#626,.F.);
#649=ADVANCED_FACE('',(#581),#627,.T.);
#650=ADVANCED_FACE('',(#582),#628,.F.);
#651=ADVANCED_FACE('',(#583),#629,.F.);
#652=ADVANCED_FACE('',(#584),#630,.T.);
#653=ADVANCED_FACE('',(#585),#631,.F.);
#654=ADVANCED_FACE('',(#586),#632,.T.);
#655=ADVANCED_FACE('',(#587),#633,.T.);
#656=ADVANCED_FACE('',(#588),#634,.F.);
#657=ADVANCED_FACE('',(#589),#20,.T.);
#658=ADVANCED_FACE('',(#590),#21,.T.);
#659=ADVANCED_FACE('',(#591),#22,.T.);
#660=ADVANCED_FACE('',(#592),#23,.T.);
#661=ADVANCED_FACE('',(#593),#635,.T.);
#662=ADVANCED_FACE('',(#594),#636,.F.);
#663=ADVANCED_FACE('',(#595),#637,.T.);
#664=ADVANCED_FACE('',(#596,#597),#24,.F.);
#665=ADVANCED_FACE('',(#598),#638,.T.);
#666=ADVANCED_FACE('',(#599),#639,.F.);
#667=ADVANCED_FACE('',(#600),#640,.F.);
#668=ADVANCED_FACE('',(#601),#641,.T.);
#669=ADVANCED_FACE('',(#602),#642,.F.);
#670=ADVANCED_FACE('',(#603),#643,.F.);
#671=ADVANCED_FACE('',(#604),#644,.T.);
#672=ADVANCED_FACE('',(#605),#25,.F.);
#673=ADVANCED_FACE('',(#606),#26,.F.);
#674=ADVANCED_FACE('',(#607,#608),#16,.F.);
#675=ADVANCED_FACE('',(#609,#610),#27,.F.);
#676=ADVANCED_FACE('',(#611,#612),#17,.F.);
#677=ADVANCED_FACE('',(#613,#614),#28,.F.);
#678=ADVANCED_FACE('',(#615,#616),#18,.F.);
#679=ADVANCED_FACE('',(#617,#618),#29,.F.);
#680=ADVANCED_FACE('',(#619,#620),#19,.F.);
#681=ADVANCED_FACE('',(#621,#622),#30,.F.);
#682=CLOSED_SHELL('',(#645,#646,#647,#648,#649,#650,#651,#652,#653,#654,
#655,#656,#657,#658,#659,#660,#661,#662,#663,#664,#665,#666,#667,#668,#669,
#670,#671,#672,#673,#674,#675,#676,#677,#678,#679,#680,#681));
#683=STYLED_ITEM('',(#684),#691);
#684=PRESENTATION_STYLE_ASSIGNMENT((#685));
#685=SURFACE_STYLE_USAGE(.BOTH.,#686);
#686=SURFACE_SIDE_STYLE('',(#687));
#687=SURFACE_STYLE_FILL_AREA(#688);
#688=FILL_AREA_STYLE('',(#689));
#689=FILL_AREA_STYLE_COLOUR('',#690);
#690=COLOUR_RGB('',0.4,0.4,0.4);
#691=MANIFOLD_SOLID_BREP('Top',#682);
#692=SHAPE_DEFINITION_REPRESENTATION(#1138,#693);
#693=SHAPE_REPRESENTATION('Top',(#694),#1133);
#694=AXIS2_PLACEMENT_3D('',#940,#754,#755);
#695=AXIS2_PLACEMENT_3D('',#941,#756,#757);
#696=AXIS2_PLACEMENT_3D('',#957,#765,#766);
#697=AXIS2_PLACEMENT_3D('',#961,#768,#769);
#698=AXIS2_PLACEMENT_3D('',#962,#770,#771);
#699=AXIS2_PLACEMENT_3D('',#963,#772,#773);
#700=AXIS2_PLACEMENT_3D('',#968,#775,#776);
#701=AXIS2_PLACEMENT_3D('',#972,#778,#779);
#702=AXIS2_PLACEMENT_3D('',#976,#781,#782);
#703=AXIS2_PLACEMENT_3D('',#980,#784,#785);
#704=AXIS2_PLACEMENT_3D('',#997,#794,#795);
#705=AXIS2_PLACEMENT_3D('',#998,#796,#797);
#706=AXIS2_PLACEMENT_3D('',#1021,#809,#810);
#707=AXIS2_PLACEMENT_3D('',#1022,#811,#812);
#708=AXIS2_PLACEMENT_3D('',#1024,#813,#814);
#709=AXIS2_PLACEMENT_3D('',#1026,#815,#816);
#710=AXIS2_PLACEMENT_3D('',#1028,#817,#818);
#711=AXIS2_PLACEMENT_3D('',#1034,#821,#822);
#712=AXIS2_PLACEMENT_3D('',#1038,#824,#825);
#713=AXIS2_PLACEMENT_3D('',#1042,#827,#828);
#714=AXIS2_PLACEMENT_3D('',#1046,#830,#831);
#715=AXIS2_PLACEMENT_3D('',#1056,#837,#838);
#716=AXIS2_PLACEMENT_3D('',#1059,#841,#842);
#717=AXIS2_PLACEMENT_3D('',#1061,#844,#845);
#718=AXIS2_PLACEMENT_3D('',#1063,#847,#848);
#719=AXIS2_PLACEMENT_3D('',#1064,#849,#850);
#720=AXIS2_PLACEMENT_3D('',#1067,#853,#854);
#721=AXIS2_PLACEMENT_3D('',#1074,#859,#860);
#722=AXIS2_PLACEMENT_3D('',#1078,#862,#863);
#723=AXIS2_PLACEMENT_3D('',#1079,#864,#865);
#724=AXIS2_PLACEMENT_3D('',#1082,#868,#869);
#725=AXIS2_PLACEMENT_3D('',#1085,#872,#873);
#726=AXIS2_PLACEMENT_3D('',#1086,#874,#875);
#727=AXIS2_PLACEMENT_3D('',#1087,#876,#877);
#728=AXIS2_PLACEMENT_3D('',#1088,#878,#879);
#729=AXIS2_PLACEMENT_3D('',#1089,#880,#881);
#730=AXIS2_PLACEMENT_3D('',#1091,#883,#884);
#731=AXIS2_PLACEMENT_3D('',#1093,#886,#887);
#732=AXIS2_PLACEMENT_3D('',#1094,#888,#889);
#733=AXIS2_PLACEMENT_3D('',#1095,#890,#891);
#734=AXIS2_PLACEMENT_3D('',#1098,#894,#895);
#735=AXIS2_PLACEMENT_3D('',#1100,#897,#898);
#736=AXIS2_PLACEMENT_3D('',#1102,#900,#901);
#737=AXIS2_PLACEMENT_3D('',#1103,#902,#903);
#738=AXIS2_PLACEMENT_3D('',#1105,#905,#906);
#739=AXIS2_PLACEMENT_3D('',#1108,#909,#910);
#740=AXIS2_PLACEMENT_3D('',#1110,#912,#913);
#741=AXIS2_PLACEMENT_3D('',#1111,#914,#915);
#742=AXIS2_PLACEMENT_3D('',#1112,#916,#917);
#743=AXIS2_PLACEMENT_3D('',#1114,#918,#919);
#744=AXIS2_PLACEMENT_3D('',#1116,#920,#921);
#745=AXIS2_PLACEMENT_3D('',#1117,#922,#923);
#746=AXIS2_PLACEMENT_3D('',#1119,#924,#925);
#747=AXIS2_PLACEMENT_3D('',#1121,#926,#927);
#748=AXIS2_PLACEMENT_3D('',#1122,#928,#929);
#749=AXIS2_PLACEMENT_3D('',#1124,#930,#931);
#750=AXIS2_PLACEMENT_3D('',#1126,#932,#933);
#751=AXIS2_PLACEMENT_3D('',#1127,#934,#935);
#752=AXIS2_PLACEMENT_3D('',#1129,#936,#937);
#753=AXIS2_PLACEMENT_3D('',#1131,#938,#939);
#754=DIRECTION('',(0.,0.,1.));
#755=DIRECTION('',(1.,0.,0.));
#756=DIRECTION('',(1.,0.,0.));
#757=DIRECTION('',(0.,0.,-1.));
#758=DIRECTION('',(0.,0.,1.));
#759=DIRECTION('',(0.,-1.,0.));
#760=DIRECTION('',(0.,0.,-1.));
#761=DIRECTION('',(0.,-1.,0.));
#762=DIRECTION('',(0.,0.,-1.));
#763=DIRECTION('',(0.,-1.,0.));
#764=DIRECTION('',(0.,0.,1.));
#765=DIRECTION('',(1.,0.,0.));
#766=DIRECTION('',(0.,0.,-1.));
#767=DIRECTION('',(0.,-1.,0.));
#768=DIRECTION('',(1.,0.,0.));
#769=DIRECTION('',(0.,0.,-1.));
#770=DIRECTION('',(0.,0.,1.));
#771=DIRECTION('',(1.,0.,0.));
#772=DIRECTION('',(0.,0.,1.));
#773=DIRECTION('',(1.,0.,0.));
#774=DIRECTION('',(-1.,-1.32169407693471E-16,0.));
#775=DIRECTION('',(0.,0.,1.));
#776=DIRECTION('',(1.,0.,0.));
#777=DIRECTION('',(0.,1.,0.));
#778=DIRECTION('',(0.,0.,1.));
#779=DIRECTION('',(1.,0.,0.));
#780=DIRECTION('',(-1.,-1.32169407693471E-16,0.));
#781=DIRECTION('',(0.,0.,1.));
#782=DIRECTION('',(1.,0.,0.));
#783=DIRECTION('',(0.,1.,0.));
#784=DIRECTION('',(0.,0.,1.));
#785=DIRECTION('',(1.,0.,0.));
#786=DIRECTION('',(0.,1.,0.));
#787=DIRECTION('',(-1.,-1.79454152687256E-16,0.));
#788=DIRECTION('',(0.,1.,0.));
#789=DIRECTION('',(-1.,-1.79454152687256E-16,0.));
#790=DIRECTION('',(0.,1.,0.));
#791=DIRECTION('',(-1.,-1.54197642309049E-16,0.));
#792=DIRECTION('',(0.,1.,0.));
#793=DIRECTION('',(-1.,-1.54197642309049E-16,0.));
#794=DIRECTION('',(0.,0.,-1.));
#795=DIRECTION('',(1.,0.,0.));
#796=DIRECTION('',(0.,0.,-1.));
#797=DIRECTION('',(-1.,0.,0.));
#798=DIRECTION('',(-1.,-1.79454152687256E-16,0.));
#799=DIRECTION('',(0.,1.,0.));
#800=DIRECTION('',(-1.,-1.79454152687256E-16,0.));
#801=DIRECTION('',(0.,1.,0.));
#802=DIRECTION('',(-1.,1.46081976924363E-16,0.));
#803=DIRECTION('',(-1.,1.46081976924363E-16,0.));
#804=DIRECTION('',(0.,-1.,0.));
#805=DIRECTION('',(0.,-1.,0.));
#806=DIRECTION('',(1.,1.54197642309049E-16,0.));
#807=DIRECTION('',(0.,-1.,0.));
#808=DIRECTION('',(1.,1.54197642309049E-16,0.));
#809=DIRECTION('',(0.,0.,1.));
#810=DIRECTION('',(1.,0.,0.));
#811=DIRECTION('',(0.,0.,1.));
#812=DIRECTION('',(1.,0.,0.));
#813=DIRECTION('',(0.,0.,1.));
#814=DIRECTION('',(1.,0.,0.));
#815=DIRECTION('',(0.,0.,1.));
#816=DIRECTION('',(1.,0.,0.));
#817=DIRECTION('',(0.,0.,1.));
#818=DIRECTION('',(1.,0.,0.));
#819=DIRECTION('',(1.,0.,0.));
#820=DIRECTION('',(0.,1.,0.));
#821=DIRECTION('',(0.,0.,1.));
#822=DIRECTION('',(1.,0.,0.));
#823=DIRECTION('',(-1.,-1.32169407693471E-16,0.));
#824=DIRECTION('',(0.,0.,1.));
#825=DIRECTION('',(1.,0.,0.));
#826=DIRECTION('',(0.,1.,0.));
#827=DIRECTION('',(0.,0.,1.));
#828=DIRECTION('',(1.,0.,0.));
#829=DIRECTION('',(-1.,-1.32169407693471E-16,0.));
#830=DIRECTION('',(0.,0.,1.));
#831=DIRECTION('',(1.,0.,0.));
#832=DIRECTION('',(0.,1.,0.));
#833=DIRECTION('',(1.,0.,0.));
#834=DIRECTION('',(-1.,1.46081976924363E-16,0.));
#835=DIRECTION('',(0.,-1.,0.));
#836=DIRECTION('',(-1.,1.46081976924363E-16,0.));
#837=DIRECTION('',(-1.79454152687256E-16,1.,0.));
#838=DIRECTION('',(-1.,-1.79454152687256E-16,0.));
#839=DIRECTION('',(0.,0.,1.));
#840=DIRECTION('',(0.,0.,1.));
#841=DIRECTION('',(1.,0.,0.));
#842=DIRECTION('',(0.,0.,-1.));
#843=DIRECTION('',(0.,0.,1.));
#844=DIRECTION('',(-1.79454152687256E-16,1.,0.));
#845=DIRECTION('',(-1.,-1.79454152687256E-16,0.));
#846=DIRECTION('',(0.,0.,1.));
#847=DIRECTION('',(1.,0.,0.));
#848=DIRECTION('',(0.,0.,-1.));
#849=DIRECTION('',(-1.32169407693471E-16,1.,0.));
#850=DIRECTION('',(-1.,-1.32169407693471E-16,0.));
#851=DIRECTION('',(0.,0.,-1.));
#852=DIRECTION('',(0.,0.,-1.));
#853=DIRECTION('',(1.,0.,0.));
#854=DIRECTION('',(0.,0.,-1.));
#855=DIRECTION('',(0.,0.,1.));
#856=DIRECTION('',(0.,0.,-1.));
#857=DIRECTION('',(0.,0.,-1.));
#858=DIRECTION('',(0.,0.,1.));
#859=DIRECTION('',(1.,0.,0.));
#860=DIRECTION('',(0.,0.,-1.));
#861=DIRECTION('',(0.,-1.,0.));
#862=DIRECTION('',(1.,0.,0.));
#863=DIRECTION('',(0.,0.,-1.));
#864=DIRECTION('',(-1.32169407693471E-16,1.,0.));
#865=DIRECTION('',(-1.,-1.32169407693471E-16,0.));
#866=DIRECTION('',(0.,0.,-1.));
#867=DIRECTION('',(0.,0.,-1.));
#868=DIRECTION('',(1.,0.,0.));
#869=DIRECTION('',(0.,0.,-1.));
#870=DIRECTION('',(0.,0.,-1.));
#871=DIRECTION('',(0.,0.,-1.));
#872=DIRECTION('',(0.,0.,1.));
#873=DIRECTION('',(1.,0.,0.));
#874=DIRECTION('',(0.,0.,-1.));
#875=DIRECTION('',(-1.,0.,0.));
#876=DIRECTION('',(0.,0.,1.));
#877=DIRECTION('',(1.,0.,0.));
#878=DIRECTION('',(0.,0.,-1.));
#879=DIRECTION('',(-1.,0.,0.));
#880=DIRECTION('',(-1.46081976924363E-16,-1.,0.));
#881=DIRECTION('',(1.,-1.46081976924363E-16,0.));
#882=DIRECTION('',(0.,0.,-1.));
#883=DIRECTION('',(-1.46081976924363E-16,-1.,0.));
#884=DIRECTION('',(1.,-1.46081976924363E-16,0.));
#885=DIRECTION('',(0.,0.,-1.));
#886=DIRECTION('',(1.,0.,0.));
#887=DIRECTION('',(0.,0.,-1.));
#888=DIRECTION('',(0.,0.,1.));
#889=DIRECTION('',(1.,0.,0.));
#890=DIRECTION('',(-1.54197642309049E-16,1.,0.));
#891=DIRECTION('',(-1.,-1.54197642309049E-16,0.));
#892=DIRECTION('',(0.,0.,1.));
#893=DIRECTION('',(0.,0.,1.));
#894=DIRECTION('',(1.,0.,0.));
#895=DIRECTION('',(0.,0.,-1.));
#896=DIRECTION('',(0.,0.,1.));
#897=DIRECTION('',(-1.54197642309049E-16,1.,0.));
#898=DIRECTION('',(-1.,-1.54197642309049E-16,0.));
#899=DIRECTION('',(0.,0.,1.));
#900=DIRECTION('',(1.,0.,0.));
#901=DIRECTION('',(0.,0.,-1.));
#902=DIRECTION('',(0.,1.,0.));
#903=DIRECTION('',(0.,0.,1.));
#904=DIRECTION('',(1.,0.,0.));
#905=DIRECTION('',(0.,0.,1.));
#906=DIRECTION('',(1.,0.,0.));
#907=DIRECTION('',(1.,0.,0.));
#908=DIRECTION('',(1.,0.,0.));
#909=DIRECTION('',(0.,1.,0.));
#910=DIRECTION('',(0.,0.,1.));
#911=DIRECTION('',(1.,0.,0.));
#912=DIRECTION('',(1.,0.,0.));
#913=DIRECTION('',(0.,0.,-1.));
#914=DIRECTION('',(-1.,0.,0.));
#915=DIRECTION('',(0.,0.,1.));
#916=DIRECTION('',(0.,0.,-1.));
#917=DIRECTION('',(-1.,0.,0.));
#918=DIRECTION('',(0.,0.,1.));
#919=DIRECTION('',(1.,0.,0.));
#920=DIRECTION('',(0.,0.,1.));
#921=DIRECTION('',(1.,0.,0.));
#922=DIRECTION('',(0.,0.,-1.));
#923=DIRECTION('',(-1.,0.,0.));
#924=DIRECTION('',(0.,0.,1.));
#925=DIRECTION('',(1.,0.,0.));
#926=DIRECTION('',(0.,0.,1.));
#927=DIRECTION('',(1.,0.,0.));
#928=DIRECTION('',(0.,0.,-1.));
#929=DIRECTION('',(-1.,0.,0.));
#930=DIRECTION('',(0.,0.,1.));
#931=DIRECTION('',(1.,0.,0.));
#932=DIRECTION('',(0.,0.,1.));
#933=DIRECTION('',(1.,0.,0.));
#934=DIRECTION('',(0.,0.,-1.));
#935=DIRECTION('',(-1.,0.,0.));
#936=DIRECTION('',(0.,0.,1.));
#937=DIRECTION('',(1.,0.,0.));
#938=DIRECTION('',(0.,0.,1.));
#939=DIRECTION('',(1.,0.,0.));
#940=CARTESIAN_POINT('',(0.,0.,0.));
#941=CARTESIAN_POINT('',(0.0475,-6.93889390390723E-18,0.0265));
#942=CARTESIAN_POINT('',(0.0475,0.017,0.022));
#943=CARTESIAN_POINT('',(0.0475,0.017,0.02));
#944=CARTESIAN_POINT('',(0.0475,0.017,0.022));
#945=CARTESIAN_POINT('',(0.0475,-6.93889390390723E-18,0.02));
#946=CARTESIAN_POINT('',(0.0475,-0.0375,0.02));
#947=CARTESIAN_POINT('',(0.0475,-0.0375,0.0265));
#948=CARTESIAN_POINT('',(0.0475,-0.0375,0.0265));
#949=CARTESIAN_POINT('',(0.0475,-6.93889390390723E-18,0.0265));
#950=CARTESIAN_POINT('',(0.0475,0.0375,0.0265));
#951=CARTESIAN_POINT('',(0.0475,0.0375,0.0265));
#952=CARTESIAN_POINT('',(0.0475,0.0375,0.02));
#953=CARTESIAN_POINT('',(0.0475,-6.93889390390723E-18,0.02));
#954=CARTESIAN_POINT('',(0.0475,0.0265,0.02));
#955=CARTESIAN_POINT('',(0.0475,0.0265,0.022));
#956=CARTESIAN_POINT('',(0.0475,0.0265,0.022));
#957=CARTESIAN_POINT('',(0.0475,0.0245,0.022));
#958=CARTESIAN_POINT('',(0.0475,0.0245,0.024));
#959=CARTESIAN_POINT('',(0.0475,0.02175,0.024));
#960=CARTESIAN_POINT('',(0.0475,0.019,0.024));
#961=CARTESIAN_POINT('',(0.0475,0.019,0.022));
#962=CARTESIAN_POINT('',(0.,0.,0.03));
#963=CARTESIAN_POINT('',(0.0338,0.00075,0.03));
#964=CARTESIAN_POINT('',(0.0438,0.00075,0.03));
#965=CARTESIAN_POINT('',(0.,0.04175,0.03));
#966=CARTESIAN_POINT('',(0.0505,0.04175,0.03));
#967=CARTESIAN_POINT('',(-0.0505,0.04175,0.03));
#968=CARTESIAN_POINT('',(-0.0505,0.03975,0.03));
#969=CARTESIAN_POINT('',(-0.0525,0.03975,0.03));
#970=CARTESIAN_POINT('',(-0.0525,-6.93889390390723E-18,0.03));
#971=CARTESIAN_POINT('',(-0.0525,-0.03975,0.03));
#972=CARTESIAN_POINT('',(-0.0505,-0.03975,0.03));
#973=CARTESIAN_POINT('',(-0.0505,-0.04175,0.03));
#974=CARTESIAN_POINT('',(0.,-0.04175,0.03));
#975=CARTESIAN_POINT('',(0.0505,-0.04175,0.03));
#976=CARTESIAN_POINT('',(0.0505,-0.03975,0.03));
#977=CARTESIAN_POINT('',(0.0525,-0.03975,0.03));
#978=CARTESIAN_POINT('',(0.0525,6.93889390390723E-18,0.03));
#979=CARTESIAN_POINT('',(0.0525,0.03975,0.03));
#980=CARTESIAN_POINT('',(0.0505,0.03975,0.03));
#981=CARTESIAN_POINT('',(0.0175,-0.01025,0.03));
#982=CARTESIAN_POINT('',(0.0175,-0.02975,0.03));
#983=CARTESIAN_POINT('',(0.0175,0.00925,0.03));
#984=CARTESIAN_POINT('',(-0.0115,-0.02975,0.03));
#985=CARTESIAN_POINT('',(-0.0405,-0.02975,0.03));
#986=CARTESIAN_POINT('',(-0.0405,-0.01025,0.03));
#987=CARTESIAN_POINT('',(-0.0405,0.00925,0.03));
#988=CARTESIAN_POINT('',(-0.0115,0.00925,0.03));
#989=CARTESIAN_POINT('',(-0.0061,0.02625,0.03));
#990=CARTESIAN_POINT('',(-0.0061,0.02325,0.03));
#991=CARTESIAN_POINT('',(-0.0061,0.02925,0.03));
#992=CARTESIAN_POINT('',(-0.01735,0.02325,0.03));
#993=CARTESIAN_POINT('',(-0.0286,0.02325,0.03));
#994=CARTESIAN_POINT('',(-0.0286,0.02625,0.03));
#995=CARTESIAN_POINT('',(-0.0286,0.02925,0.03));
#996=CARTESIAN_POINT('',(-0.01735,0.02925,0.03));
#997=CARTESIAN_POINT('',(0.,0.,0.0265));
#998=CARTESIAN_POINT('',(0.0338,0.00075,0.0265));
#999=CARTESIAN_POINT('',(0.0238,0.00075,0.0265));
#1000=CARTESIAN_POINT('',(-0.0115,-0.02975,0.0265));
#1001=CARTESIAN_POINT('',(0.0175,-0.02975,0.0265));
#1002=CARTESIAN_POINT('',(-0.0405,-0.02975,0.0265));
#1003=CARTESIAN_POINT('',(0.0175,-0.01025,0.0265));
#1004=CARTESIAN_POINT('',(0.0175,0.00925,0.0265));
#1005=CARTESIAN_POINT('',(-0.0115,0.00925,0.0265));
#1006=CARTESIAN_POINT('',(-0.0405,0.00925,0.0265));
#1007=CARTESIAN_POINT('',(-0.0405,-0.01025,0.0265));
#1008=CARTESIAN_POINT('',(0.,0.0375,0.0265));
#1009=CARTESIAN_POINT('',(-0.0475,0.0375,0.0265));
#1010=CARTESIAN_POINT('',(0.,-0.0375,0.0265));
#1011=CARTESIAN_POINT('',(-0.0475,-0.0375,0.0265));
#1012=CARTESIAN_POINT('',(-0.0475,6.93889390390723E-18,0.0265));
#1013=CARTESIAN_POINT('',(-0.0286,0.,0.0265));
#1014=CARTESIAN_POINT('',(-0.0286,0.02925,0.0265));
#1015=CARTESIAN_POINT('',(-0.0286,0.02325,0.0265));
#1016=CARTESIAN_POINT('',(-3.5850951836854E-18,0.02325,0.0265));
#1017=CARTESIAN_POINT('',(-0.0061,0.02325,0.0265));
#1018=CARTESIAN_POINT('',(-0.0061,0.,0.0265));
#1019=CARTESIAN_POINT('',(-0.0061,0.02925,0.0265));
#1020=CARTESIAN_POINT('',(-4.5102810375397E-18,0.02925,0.0265));
#1021=CARTESIAN_POINT('',(0.,0.,0.02));
#1022=CARTESIAN_POINT('',(0.0495,-0.03875,0.02));
#1023=CARTESIAN_POINT('',(0.05075,-0.03875,0.02));
#1024=CARTESIAN_POINT('',(-0.0495,-0.03875,0.02));
#1025=CARTESIAN_POINT('',(-0.04825,-0.03875,0.02));
#1026=CARTESIAN_POINT('',(-0.0495,0.03875,0.02));
#1027=CARTESIAN_POINT('',(-0.04825,0.03875,0.02));
#1028=CARTESIAN_POINT('',(0.0495,0.03875,0.02));
#1029=CARTESIAN_POINT('',(0.05075,0.03875,0.02));
#1030=CARTESIAN_POINT('',(0.0475,0.017,0.02));
#1031=CARTESIAN_POINT('',(0.0525,0.017,0.02));
#1032=CARTESIAN_POINT('',(0.0525,6.93889390390723E-18,0.02));
#1033=CARTESIAN_POINT('',(0.0525,-0.03975,0.02));
#1034=CARTESIAN_POINT('',(0.0505,-0.03975,0.02));
#1035=CARTESIAN_POINT('',(0.0505,-0.04175,0.02));
#1036=CARTESIAN_POINT('',(0.,-0.04175,0.02));
#1037=CARTESIAN_POINT('',(-0.0505,-0.04175,0.02));
#1038=CARTESIAN_POINT('',(-0.0505,-0.03975,0.02));
#1039=CARTESIAN_POINT('',(-0.0525,-0.03975,0.02));
#1040=CARTESIAN_POINT('',(-0.0525,-6.93889390390723E-18,0.02));
#1041=CARTESIAN_POINT('',(-0.0525,0.03975,0.02));
#1042=CARTESIAN_POINT('',(-0.0505,0.03975,0.02));
#1043=CARTESIAN_POINT('',(-0.0505,0.04175,0.02));
#1044=CARTESIAN_POINT('',(0.,0.04175,0.02));
#1045=CARTESIAN_POINT('',(0.0505,0.04175,0.02));
#1046=CARTESIAN_POINT('',(0.0505,0.03975,0.02));
#1047=CARTESIAN_POINT('',(0.0525,0.03975,0.02));
#1048=CARTESIAN_POINT('',(0.0525,6.93889390390723E-18,0.02));
#1049=CARTESIAN_POINT('',(0.0525,0.0265,0.02));
#1050=CARTESIAN_POINT('',(0.0475,0.0265,0.02));
#1051=CARTESIAN_POINT('',(0.,0.0375,0.02));
#1052=CARTESIAN_POINT('',(-0.0475,0.0375,0.02));
#1053=CARTESIAN_POINT('',(-0.0475,6.93889390390723E-18,0.02));
#1054=CARTESIAN_POINT('',(-0.0475,-0.0375,0.02));
#1055=CARTESIAN_POINT('',(0.,-0.0375,0.02));
#1056=CARTESIAN_POINT('',(-0.0115,-0.02975,0.02));
#1057=CARTESIAN_POINT('',(0.0175,-0.02975,0.02));
#1058=CARTESIAN_POINT('',(-0.0405,-0.02975,0.02));
#1059=CARTESIAN_POINT('',(0.0175,-0.01025,0.02));
#1060=CARTESIAN_POINT('',(0.0175,0.00925,0.02));
#1061=CARTESIAN_POINT('',(-0.0115,0.00925,0.02));
#1062=CARTESIAN_POINT('',(-0.0405,0.00925,0.02));
#1063=CARTESIAN_POINT('',(-0.0405,-0.01025,0.02));
#1064=CARTESIAN_POINT('',(0.,-0.04175,-0.006));
#1065=CARTESIAN_POINT('',(-0.0505,-0.04175,-0.006));
#1066=CARTESIAN_POINT('',(0.0505,-0.04175,0.03));
#1067=CARTESIAN_POINT('',(0.0525,6.93889390390723E-18,-0.006));
#1068=CARTESIAN_POINT('',(0.0525,0.0265,0.022));
#1069=CARTESIAN_POINT('',(0.0525,0.0265,0.022));
#1070=CARTESIAN_POINT('',(0.0525,0.03975,-0.006));
#1071=CARTESIAN_POINT('',(0.0525,-0.03975,0.02));
#1072=CARTESIAN_POINT('',(0.0525,0.017,0.022));
#1073=CARTESIAN_POINT('',(0.0525,0.017,0.022));
#1074=CARTESIAN_POINT('',(0.0525,0.019,0.022));
#1075=CARTESIAN_POINT('',(0.0525,0.019,0.024));
#1076=CARTESIAN_POINT('',(0.0525,0.02175,0.024));
#1077=CARTESIAN_POINT('',(0.0525,0.0245,0.024));
#1078=CARTESIAN_POINT('',(0.0525,0.0245,0.022));
#1079=CARTESIAN_POINT('',(0.,0.04175,-0.006));
#1080=CARTESIAN_POINT('',(-0.0505,0.04175,0.03));
#1081=CARTESIAN_POINT('',(0.0505,0.04175,-0.006));
#1082=CARTESIAN_POINT('',(-0.0525,-6.93889390390723E-18,-0.006));
#1083=CARTESIAN_POINT('',(-0.0525,0.03975,0.02));
#1084=CARTESIAN_POINT('',(-0.0525,-0.03975,-0.006));
#1085=CARTESIAN_POINT('',(-0.0505,0.03975,-0.006));
#1086=CARTESIAN_POINT('',(-0.0505,-0.03975,-0.006));
#1087=CARTESIAN_POINT('',(0.0505,-0.03975,-0.006));
#1088=CARTESIAN_POINT('',(0.0505,0.03975,-0.006));
#1089=CARTESIAN_POINT('',(0.,0.0375,0.0265));
#1090=CARTESIAN_POINT('',(-0.0475,0.0375,0.0265));
#1091=CARTESIAN_POINT('',(0.,-0.0375,0.0265));
#1092=CARTESIAN_POINT('',(-0.0475,-0.0375,0.0265));
#1093=CARTESIAN_POINT('',(-0.0475,6.93889390390723E-18,0.0265));
#1094=CARTESIAN_POINT('',(0.0338,0.00075,0.025));
#1095=CARTESIAN_POINT('',(-0.01735,0.02325,0.005));
#1096=CARTESIAN_POINT('',(-0.0286,0.02325,0.005));
#1097=CARTESIAN_POINT('',(-0.0061,0.02325,0.005));
#1098=CARTESIAN_POINT('',(-0.0061,0.02625,0.005));
#1099=CARTESIAN_POINT('',(-0.0061,0.02925,0.005));
#1100=CARTESIAN_POINT('',(-0.01735,0.02925,0.005));
#1101=CARTESIAN_POINT('',(-0.0286,0.02925,0.005));
#1102=CARTESIAN_POINT('',(-0.0286,0.02625,0.005));
#1103=CARTESIAN_POINT('',(0.0475,0.0265,0.022));
#1104=CARTESIAN_POINT('',(0.0475,0.0265,0.022));
#1105=CARTESIAN_POINT('',(0.0475,0.02175,0.024));
#1106=CARTESIAN_POINT('',(0.0475,0.019,0.024));
#1107=CARTESIAN_POINT('',(0.0525,0.0245,0.024));
#1108=CARTESIAN_POINT('',(0.0475,0.017,0.022));
#1109=CARTESIAN_POINT('',(0.0475,0.017,0.022));
#1110=CARTESIAN_POINT('',(0.0475,0.019,0.022));
#1111=CARTESIAN_POINT('',(0.0475,0.0245,0.022));
#1112=CARTESIAN_POINT('',(0.0495,0.03875,0.025));
#1113=CARTESIAN_POINT('',(0.0495,0.03875,0.0257510757737845));
#1114=CARTESIAN_POINT('',(0.0495,0.03875,0.025));
#1115=CARTESIAN_POINT('',(0.05075,0.03875,0.025));
#1116=CARTESIAN_POINT('',(0.0495,0.03875,0.02));
#1117=CARTESIAN_POINT('',(-0.0495,0.03875,0.025));
#1118=CARTESIAN_POINT('',(-0.0495,0.03875,0.0257510757737845));
#1119=CARTESIAN_POINT('',(-0.0495,0.03875,0.025));
#1120=CARTESIAN_POINT('',(-0.04825,0.03875,0.025));
#1121=CARTESIAN_POINT('',(-0.0495,0.03875,0.02));
#1122=CARTESIAN_POINT('',(-0.0495,-0.03875,0.025));
#1123=CARTESIAN_POINT('',(-0.0495,-0.03875,0.0257510757737845));
#1124=CARTESIAN_POINT('',(-0.0495,-0.03875,0.025));
#1125=CARTESIAN_POINT('',(-0.04825,-0.03875,0.025));
#1126=CARTESIAN_POINT('',(-0.0495,-0.03875,0.02));
#1127=CARTESIAN_POINT('',(0.0495,-0.03875,0.025));
#1128=CARTESIAN_POINT('',(0.0495,-0.03875,0.0257510757737845));
#1129=CARTESIAN_POINT('',(0.0495,-0.03875,0.025));
#1130=CARTESIAN_POINT('',(0.05075,-0.03875,0.025));
#1131=CARTESIAN_POINT('',(0.0495,-0.03875,0.02));
#1132=MECHANICAL_DESIGN_GEOMETRIC_PRESENTATION_REPRESENTATION('',(#683),
#1133);
#1133=(
GEOMETRIC_REPRESENTATION_CONTEXT(3)
GLOBAL_UNCERTAINTY_ASSIGNED_CONTEXT((#1134))
GLOBAL_UNIT_ASSIGNED_CONTEXT((#1137,#1136,#1135))
REPRESENTATION_CONTEXT('Top','TOP_LEVEL_ASSEMBLY_PART')
);
#1134=UNCERTAINTY_MEASURE_WITH_UNIT(LENGTH_MEASURE(1.E-8),#1137,
'DISTANCE_ACCURACY_VALUE','Maximum Tolerance applied to model');
#1135=(
NAMED_UNIT(*)
SI_UNIT($,.STERADIAN.)
SOLID_ANGLE_UNIT()
);
#1136=(
NAMED_UNIT(*)
PLANE_ANGLE_UNIT()
SI_UNIT($,.RADIAN.)
);
#1137=(
LENGTH_UNIT()
NAMED_UNIT(*)
SI_UNIT($,.METRE.)
);
#1138=PRODUCT_DEFINITION_SHAPE('','',#1139);
#1139=PRODUCT_DEFINITION('','',#1141,#1140);
#1140=PRODUCT_DEFINITION_CONTEXT('',#1147,'design');
#1141=PRODUCT_DEFINITION_FORMATION_WITH_SPECIFIED_SOURCE('','',#1143,
 .NOT_KNOWN.);
#1142=PRODUCT_RELATED_PRODUCT_CATEGORY('','',(#1143));
#1143=PRODUCT('Top','Top','Top',(#1145));
#1144=PRODUCT_CATEGORY('','');
#1145=PRODUCT_CONTEXT('',#1147,'mechanical');
#1146=APPLICATION_PROTOCOL_DEFINITION('international standard',
'ap242_managed_model_based_3d_engineering',2020,#1147);
#1147=APPLICATION_CONTEXT('managed model based 3d engineering');
ENDSEC;
END-ISO-10303-21;
